<?xml version="1.0" standalone="no"?>
  <!DOCTYPE svg PUBLIC "-//W3C//DTD SVG 1.1//EN" "http://www.w3.org/Graphics/SVG/1.1/DTD/svg11.dtd" >
  <svg>
  <metadata>
  Created by font-carrier
  </metadata>
  <defs>
  <font id="WiGuru4" horiz-adv-x="1365" vert-adv-y="1365" >
    <font-face
      
      font-family="WiGuru4"
      
      font-weight="400"
      
      font-stretch="normal"
      
      units-per-em="2048"
      
      ascent="2029"
      
      descent="-429"
      
    />
      <missing-glyph />

      

      
      <glyph glyph-name="uni21" unicode="&#x21;" d="M266 1365L266 366L139 366L139 1365L266 1365M267 186L267 0L130 0L130 186L267 186Z"  horiz-adv-x="396" vert-adv-y="2048"  />

      
      <glyph glyph-name="uni22" unicode="&#x22;" d="M245 1365L245 915L134 915L134 1365L245 1365M438 1365L438 915L327 915L327 1365L438 1365Z"  horiz-adv-x="599" vert-adv-y="2048"  />

      
      <glyph glyph-name="uni23" unicode="&#x23;" d="M405 430L262 430L217 0L128 0L173 430L64 430L75 539L185 539L218 854L109 854L120 963L229 963L272 1365L360 1365L318 963L461 963L504 1365L592 1365L550 963L666 963L655 854L539 854L506 539L622 539L610 430L494 430L449 0L360 0L405 430M417 539L450 854L306 854L273 539L417 539Z"  horiz-adv-x="737" vert-adv-y="2048"  />

      
      <glyph glyph-name="uni24" unicode="&#x24;" d="M388-225L309-225L309-40Q152-29 89 75Q36 165 37 354L187 354Q189 198 214 149Q233 109 261 92Q276 83 309 76L309 648Q268 684 252 697Q156 777 121 834Q70 918 70 1054Q70 1280 194 1354Q240 1381 309 1390L309 1546L388 1546L388 1391Q492 1382 555 1314Q620 1241 634 1109Q638 1072 639 1016L489 1016Q489 1137 470 1194Q456 1235 432 1254Q419 1265 388 1274L388 772Q526 655 561 608Q602 554 618 500Q640 428 640 305Q640 165 606 94Q552-15 388-38L388-225M309 1267Q272 1249 260 1229Q234 1189 234 1089Q234 964 273 895Q284 874 309 846L309 1267M388 82Q428 94 446 126Q471 172 474 227Q476 254 476 299Q476 412 460 463Q442 522 388 577L388 82Z"  horiz-adv-x="683" vert-adv-y="2048"  />

      
      <glyph glyph-name="uni25" unicode="&#x25;" d="M675 1365L257 0L167 0L585 1365L675 1365M226 1379Q309 1379 350 1288Q393 1190 393 1017Q393 870 358 770Q315 652 218 652Q136 652 96 732Q45 831 45 1003Q45 1163 85 1267Q129 1379 226 1379M220 1279Q205 1279 189.50 1259Q174 1239 166 1209Q143 1120 143 1006Q143 859 174 795Q195 753 218 754Q259 756 277 830Q296 905 296 1010Q296 1144 273 1218Q253 1279 220 1279M624 699Q707 699 748 607Q791 510 791 337Q791 189 756 90Q713-28 616-28Q534-28 494 52Q443 151 443 322Q443 483 483 587Q527 699 624 699M618 599Q603 599 587.50 578.50Q572 558 564 528Q541 440 541 327Q541 179 573 114Q592 74 615 74Q656 74 675 150Q694 226 694 331Q694 463 671 537Q651 599 618 599Z"  horiz-adv-x="837" vert-adv-y="2048"  />

      
      <glyph glyph-name="uni26" unicode="&#x26;" d="M722 761L722 642L605 642Q600 642 579 644L564 646L549 647Q636 544 636 380Q636 191 552 68Q486-27 348-27Q199-27 133 75Q54 196 54 390Q54 587 147 693Q181 731 238 751Q111 830 111 1037Q111 1210 181 1309Q207 1346 253.50 1369Q300 1392 349 1392Q558 1392 589 1062L452 1062Q447 1136 429 1192Q407 1261 351 1261Q299 1261 279 1210Q250 1136 250 1027Q250 929 283 856Q305 806 335 801L348 799L348 696L335 693Q287 683 255 632Q198 540 198 396Q198 274 234 191Q267 115 348 115Q496 115 496 406Q496 505 478 574Q461 639 441 652L430 659L430 761L722 761Z"  horiz-adv-x="743" vert-adv-y="2048"  />

      
      <glyph glyph-name="uni27" unicode="&#x27;" d="M245 1365L245 915L134 915L134 1365L245 1365Z"  horiz-adv-x="405" vert-adv-y="2048"  />

      
      <glyph glyph-name="uni28" unicode="&#x28;" d="M324 1443Q267 1166 249 1032Q209 747 209 519Q209 177 324-378L189-378Q146-185 123-68Q62 250 62 513Q62 792 122 1117Q146 1248 189 1443L324 1443Z"  horiz-adv-x="374" vert-adv-y="2048"  />

      
      <glyph glyph-name="uni29" unicode="&#x29;" d="M50-378Q106-104 125 33Q165 318 165 546Q165 886 50 1443L185 1443Q230 1242 251 1133Q312 815 312 552Q312 273 252-52Q229-178 184-378L50-378Z"  horiz-adv-x="374" vert-adv-y="2048"  />

      
      <glyph glyph-name="uni2a" unicode="&#x2a;" d="M117 1299L333 1160L267 1409L438 1409L372 1160L588 1300L641 1137L384 1123L584 960L446 860L352 1100L260 860L122 960L321 1123L64 1137L117 1299Z"  horiz-adv-x="706" vert-adv-y="2048"  />

      
      <glyph glyph-name="uni2b" unicode="&#x2b;" d="M296 655L73 655L73 745L297 745L297 969L387 969L387 745L610 745L610 655L386 655L386 432L296 432L296 655Z"  horiz-adv-x="683" vert-adv-y="2048"  />

      
      <glyph glyph-name="uni2c" unicode="&#x2c;" d="M242 196L138-253L39-253L112 196L242 196Z"  horiz-adv-x="350" vert-adv-y="2048"  />

      
      <glyph glyph-name="uni2d" unicode="&#x2d;" d="M355 552L355 423L77 423L77 552L355 552Z"  horiz-adv-x="432" vert-adv-y="2048"  />

      
      <glyph glyph-name="uni2e" unicode="&#x2e;" d="M244 196L244 0L107 0L107 196L244 196Z"  horiz-adv-x="350" vert-adv-y="2048"  />

      
      <glyph glyph-name="uni2f" unicode="&#x2f;" d="M474 1365L131 0L28 0L372 1365L474 1365Z"  horiz-adv-x="502" vert-adv-y="2048"  />

      
      <glyph glyph-name="uni30" unicode="&#x30;" d="M345 1392Q482 1392 542 1254Q580 1169 592 981Q599 885 599 683Q599 399 581 272Q561 130 517 65Q455-27 342-27Q201-27 141 111Q103 196 91 384Q84 481 84 690Q84 964 102 1093Q123 1237 166 1300Q228 1392 345 1392M340 1256Q306 1256 287.50 1220Q269 1184 261 1101Q248 980 248 683Q248 349 265 228Q282 109 342 109Q377 109 395 144.50Q413 180 422 264Q435 385 435 692Q435 1015 418 1137Q401 1256 340 1256Z"  horiz-adv-x="683" vert-adv-y="2048"  />

      
      <glyph glyph-name="uni31" unicode="&#x31;" d="M454 1365L454 0L297 0L297 1135Q244 1040 161 922L161 1141Q203 1197 287 1315L323 1365L454 1365Z"  horiz-adv-x="683" vert-adv-y="2048"  />

      
      <glyph glyph-name="uni32" unicode="&#x32;" d="M592 134L592 0L90 0L90 134L180 316Q322 603 365 715Q433 891 433 1049Q433 1258 337 1258Q247 1258 238 1043L95 1043Q97 1203 152 1285Q224 1392 358 1392Q462 1392 519 1321Q591 1231 591 1062Q591 942 545 795Q499 648 389 419Q340 317 250 134L592 134Z"  horiz-adv-x="683" vert-adv-y="2048"  />

      
      <glyph glyph-name="uni33" unicode="&#x33;" d="M259 646L259 780L296 780Q333 780 348 790Q404 827 404 1014Q404 1161 376 1223Q360 1258 325 1258Q280 1258 268 1190Q263 1160 260 1072L117 1072Q123 1245 159 1300Q218 1392 342 1392Q568 1392 568 1049Q568 812 435 727Q497 709 529 664Q563 617 577 552.50Q591 488 591 381Q591 134 516 40Q461-27 320-27Q232-27 187 6Q115 58 100 177Q95 217 92 289L235 289Q241 177 256 142Q275 100 320 100Q371 100 393 144Q427 211 427 377Q427 539 387 600Q357 646 302 646L259 646Z"  horiz-adv-x="683" vert-adv-y="2048"  />

      
      <glyph glyph-name="uni34" unicode="&#x34;" d="M524 1365L524 445L603 445L603 311L524 311L524 0L367 0L367 311L60 311L60 433L353 1365L524 1365M367 445L367 936Q369 992 369 1037L206 445L367 445Z"  horiz-adv-x="683" vert-adv-y="2048"  />

      
      <glyph glyph-name="uni35" unicode="&#x35;" d="M547 1365L547 1231L279 1231L261 825Q323 906 398 906Q494 906 535 814Q568 741 575 651Q582 560 582 459Q582 277 560 186Q531 62 469 13Q419-27 324-27Q175-27 125 103Q104 158 99 283L242 283Q245 188 252 164Q269 107 320 107Q377 107 399 193Q418 266 418 480Q418 676 400 732Q387 772 354 772Q312 772 281 712Q261 672 238 605L116 605L146 1365L547 1365Z"  horiz-adv-x="683" vert-adv-y="2048"  />

      
      <glyph glyph-name="uni36" unicode="&#x36;" d="M600 1077L454 1077Q450 1158 437 1205Q422 1259 371 1259Q304 1259 273 1159Q243 1065 231 786Q258 833 276 851Q323 901 390 901Q490 901 543 789Q597 675 597 459Q597 206 538 88Q481-27 342-27Q275-27 223.50 2Q172 31 148 82Q113 156 98 278Q83 400 83 608Q83 1022 146 1205Q211 1392 379 1392Q466 1392 523 1339Q579 1288 593 1177Q597 1143 600 1077M339 767Q311 767 287.50 740Q264 713 254 668Q238 601 238 429Q238 276 255 200Q276 107 339 107Q400 107 418 202Q433 285 433 440Q433 658 407 714Q382 767 339 767Z"  horiz-adv-x="683" vert-adv-y="2048"  />

      
      <glyph glyph-name="uni37" unicode="&#x37;" d="M268 0L111 0L435 1231L103 1231L103 1365L582 1365L582 1225L268 0Z"  horiz-adv-x="683" vert-adv-y="2048"  />

      
      <glyph glyph-name="uni38" unicode="&#x38;" d="M236 737Q182 761 162 794Q122 865 122 1052Q122 1238 177 1316Q230 1392 340 1392Q454 1392 508 1314Q561 1237 561 1052Q561 865 521 794Q501 761 447 737Q507 711 529 678Q559 634 572 566Q585 498 585 382Q585 265 571.50 193.50Q558 122 526 70Q499 25 449-1Q399-27 341-27Q283-27 233.50-1Q184 25 156 70Q118 134 107 217Q98 293 98 382Q98 498 111 566Q124 634 154 678Q176 711 236 737M341 1258Q308 1258 300 1212Q291 1168 290 1024Q291 881 300 836Q308 790 342 790Q356 790 368.50 803.50Q381 817 385 836Q392 878 395 1023Q392 1173 385 1212Q376 1258 341 1258M340 668Q296 668 280 621Q262 566 262 386Q262 210 280 154Q296 107 341 107Q387 107 403 154Q421 210 421 377Q421 568 403 621Q387 668 340 668Z"  horiz-adv-x="683" vert-adv-y="2048"  />

      
      <glyph glyph-name="uni39" unicode="&#x39;" d="M83 288L228 288Q231 196 248 161Q274 106 336 106Q384 106 409.50 135Q435 164 445 230Q451 271 452 579Q425 538 407 521Q359 478 295 478Q191 478 138 586.50Q85 695 85 905Q85 1169 147 1284Q206 1392 345 1392Q450 1392 512 1328Q570 1268 588 1098Q607 929 607 627Q607 403 595.50 299Q584 195 548 100Q521 28 465-2Q418-27 333-27Q186-27 125 89Q92 150 83 288M342 1258Q282 1258 264 1163Q249 1080 249 932Q249 788 255 738Q270 598 341 598Q370 598 394.50 625Q419 652 429 697Q445 765 445 923Q445 1094 428 1165Q406 1258 342 1258Z"  horiz-adv-x="683" vert-adv-y="2048"  />

      
      <glyph glyph-name="uni3a" unicode="&#x3a;" d="M266 969L266 775L129 775L129 969L266 969M266 195L266 0L129 0L129 195L266 195Z"  horiz-adv-x="370" vert-adv-y="2048"  />

      
      <glyph glyph-name="uni3b" unicode="&#x3b;" d="M264 969L264 775L127 775L127 969L264 969M264 196L159-253L60-253L133 196L264 196Z"  horiz-adv-x="371" vert-adv-y="2048"  />

      
      <glyph glyph-name="uni3c" unicode="&#x3c;" d="M955 1167L955 1013L234 683L955 353L955 198L68 616L68 750L955 1167Z"  horiz-adv-x="1024" vert-adv-y="2048"  />

      
      <glyph glyph-name="uni3d" unicode="&#x3d;" d="M73 889L610 889L610 801L73 801L73 889M73 599L610 599L610 511L73 511L73 599Z"  horiz-adv-x="683" vert-adv-y="2048"  />

      
      <glyph glyph-name="uni3e" unicode="&#x3e;" d="M69 1167L956 750L956 616L69 198L69 353L790 683L69 1013L69 1167Z"  horiz-adv-x="1024" vert-adv-y="2048"  />

      
      <glyph glyph-name="uni3f" unicode="&#x3f;" d="M177 1024L41 1024Q52 1209 101 1290Q168 1399 295 1399Q391 1399 451 1334Q536 1241 536 1080Q536 969 489 865Q478 841 413 732L376 663Q339 567 336 486Q331 425 332 368L203 368Q206 508 216 559Q232 638 302 769L344 848Q398 951 398 1065Q398 1167 362 1226Q333 1274 291 1274Q226 1274 196 1163Q180 1102 177 1024M340 186L340 0L203 0L203 186L340 186Z"  horiz-adv-x="573" vert-adv-y="2048"  />

      
      <glyph glyph-name="uni40" unicode="&#x40;" d="M588 952L681 952L627 568Q615 480 615 437Q615 392 646 392Q686 392 717 473Q765 595 765 774Q765 1029 682 1180Q649 1240 595 1274.50Q541 1309 480 1309Q383 1309 306 1225Q231 1143 191 969Q160 836 160 679Q160 400 249 217Q324 62 493 62Q619 62 723 143Q725 144 774 186L793 73Q630-26 470-26Q346-26 250 66Q158 154 108 346Q68 499 68 679Q68 1001 189 1213Q236 1296 314 1343Q392 1390 483 1390Q651 1390 740 1247Q852 1069 852 776Q852 525 764 383Q716 305 647 305Q591 305 535 377Q471 302 386 302Q239 302 239 511Q239 602 259 696Q279 790 312 851Q372 963 470 963Q556 963 583 893L588 952M477 884Q415 884 376 768Q337 651 337 520Q337 381 408 381Q476 381 516 498Q555 611 555 747Q555 884 477 884Z"  horiz-adv-x="921" vert-adv-y="2048"  />

      
      <glyph glyph-name="uni41" unicode="&#x41;" d="M421 1374L713 0L563 0L469 445L239 445L143 0L0 0L294 1374L421 1374M441 575L378 895Q360 990 353 1104Q348 1050 347 1033Q340 951 329 895L266 575L441 575Z"  horiz-adv-x="713" vert-adv-y="2048"  />

      
      <glyph glyph-name="uni42" unicode="&#x42;" d="M96 1365L320 1365Q596 1365 596 1035Q596 789 455 720Q523 692 557 649Q634 554 634 378Q634 228 581 131Q530 38 438 12Q395 0 333 0L96 0L96 1365M253 777L307 777Q432 777 432 1004Q432 1165 388 1209Q362 1235 306 1235L253 1235L253 777M253 130L309 130Q380 130 416 169Q470 229 470 382Q470 642 309 642L253 642L253 130Z"  horiz-adv-x="675" vert-adv-y="2048"  />

      
      <glyph glyph-name="uni43" unicode="&#x43;" d="M743 1034L593 1034Q586 1142 559 1193Q521 1262 438 1262Q302 1262 255 1074Q212 907 212 635Q212 355 266 228Q291 170 335.50 136.50Q380 103 432 103Q576 103 593 371L743 371Q730-27 419-27Q236-27 151 108Q98 190 73 324.50Q48 459 48 657Q48 909 80 1048Q121 1223 207.50 1307.50Q294 1392 431 1392Q627 1392 704 1228Q741 1148 743 1034Z"  horiz-adv-x="784" vert-adv-y="2048"  />

      
      <glyph glyph-name="uni44" unicode="&#x44;" d="M96 0L96 1365L371 1365Q544 1365 631 1282Q778 1140 778 695Q778 222 629 72Q558 0 371 0L96 0M253 130L354 130Q467 130 528 210Q614 323 614 711Q614 973 567 1088Q523 1196 441 1223Q405 1235 354 1235L253 1235L253 130Z"  horiz-adv-x="826" vert-adv-y="2048"  />

      
      <glyph glyph-name="uni45" unicode="&#x45;" d="M515 1365L515 1231L253 1231L253 767L515 767L515 633L253 633L253 134L532 134L532 0L96 0L96 1365L515 1365Z"  horiz-adv-x="573" vert-adv-y="2048"  />

      
      <glyph glyph-name="uni46" unicode="&#x46;" d="M524 1365L524 1231L253 1231L253 769L510 769L510 635L253 635L253 0L96 0L96 1365L524 1365Z"  horiz-adv-x="565" vert-adv-y="2048"  />

      
      <glyph glyph-name="uni47" unicode="&#x47;" d="M744 647L744 41Q616-27 463-27Q238-27 145 136Q48 306 48 651Q48 1392 437 1392Q631 1392 705 1220Q735 1150 744 1029L586 1029Q578 1150 550 1201Q516 1262 444 1262Q369 1262 316 1193Q256 1116 229 933Q212 819 212 659Q212 404 266 260Q325 103 475 103Q525 103 586 125L586 513L484 513L484 647L744 647Z"  horiz-adv-x="826" vert-adv-y="2048"  />

      
      <glyph glyph-name="uni48" unicode="&#x48;" d="M253 1365L253 766L580 766L580 1365L737 1365L737 0L580 0L580 632L253 632L253 0L96 0L96 1365L253 1365Z"  horiz-adv-x="832" vert-adv-y="2048"  />

      
      <glyph glyph-name="uni49" unicode="&#x49;" d="M266 1365L266 0L109 0L109 1365L266 1365Z"  horiz-adv-x="375" vert-adv-y="2048"  />

      
      <glyph glyph-name="uni4a" unicode="&#x4a;" d="M267 1365L267-63Q267-262 243-330Q225-380 181-404Q137-428 62-428Q17-428-7-425L-7-291Q30-293 39-293Q94-293 106-238Q110-221 110-83L110 1365L267 1365Z"  horiz-adv-x="377" vert-adv-y="2048"  />

      
      <glyph glyph-name="uni4b" unicode="&#x4b;" d="M253 744L505 1365L671 1365L387 715L697 0L530 0L253 679L253 0L96 0L96 1365L253 1365L253 744Z"  horiz-adv-x="710" vert-adv-y="2048"  />

      
      <glyph glyph-name="uni4c" unicode="&#x4c;" d="M253 1365L253 134L529 134L529 0L96 0L96 1365L253 1365Z"  horiz-adv-x="542" vert-adv-y="2048"  />

      
      <glyph glyph-name="uni4d" unicode="&#x4d;" d="M931 1365L1000 0L843 0L815 734L809 837Q809 879 810 917Q811 956 811 1035Q789 877 756 734L610 0L446 0L287 764Q278 806 269 867Q256 960 244 1035Q246 934 246 888Q246 841 240 764L212 0L55 0L123 1365L303 1365L494 479Q508 414 513 365Q522 286 528 231Q542 392 563 479L753 1365L931 1365Z"  horiz-adv-x="1054" vert-adv-y="2048"  />

      
      <glyph glyph-name="uni4e" unicode="&#x4e;" d="M744 1365L744 0L580 0L288 876Q279 908 246 1045Q250 968 253 876L253 0L96 0L96 1365L267 1365L564 456Q572 429 579 395Q584 363 594 321Q588 376 587 443L587 1365L744 1365Z"  horiz-adv-x="839" vert-adv-y="2048"  />

      
      <glyph glyph-name="uni4f" unicode="&#x4f;" d="M430 1392Q500 1392 565.50 1359Q631 1326 669 1272Q803 1086 803 682Q803 281 669 93Q630 38 564.50 5.50Q499-27 426-27Q352-27 286 5.50Q220 38 181 93Q48 281 48 677Q48 1086 181 1272Q222 1328 288 1360Q354 1392 430 1392M422 1262Q330 1262 279 1143Q212 987 212 682Q212 379 279 222Q329 103 426 103Q522 103 572 222Q639 379 639 675Q639 1262 422 1262Z"  horiz-adv-x="850" vert-adv-y="2048"  />

      
      <glyph glyph-name="uni50" unicode="&#x50;" d="M253 533L253 0L96 0L96 1365L320 1365Q441 1365 510 1299Q562 1250 585.50 1165Q609 1080 609 943Q609 750 556 660Q507 578 427 548Q387 533 320 533L253 533M253 670L302 670Q378 670 406 713Q445 773 445 941Q445 1144 385 1204Q358 1231 302 1231L253 1231L253 670Z"  horiz-adv-x="642" vert-adv-y="2048"  />

      
      <glyph glyph-name="uni51" unicode="&#x51;" d="M654 65Q726-30 819-117L764-187Q748-208 736-208Q708-208 566-26L550-5Q490-27 434-27Q360-27 294.50 5.50Q229 38 189 93Q56 281 56 682Q56 1084 189 1272Q228 1327 294 1359.50Q360 1392 434 1392Q507 1392 572.50 1359.50Q638 1327 677 1272Q811 1084 811 680Q811 249 654 65M430 1262Q338 1262 287 1143Q220 987 220 682Q220 379 287 222Q337 103 434 103Q530 103 580 222Q647 379 647 675Q647 1262 430 1262Z"  horiz-adv-x="853" vert-adv-y="2048"  />

      
      <glyph glyph-name="uni52" unicode="&#x52;" d="M253 631L253 0L96 0L96 1365L302 1365Q449 1365 503 1322Q554 1283 576 1215Q600 1143 600 1011Q600 825 536 744Q504 703 438 681Q495 665 527 613Q556 561 572 498Q584 450 598 381L632 211Q645 136 698 0L539 0Q519 46 503 105L460 294Q422 482 401 543Q366 631 302 631L253 631M253 762L302 762Q358 762 391 803Q416 834 426 885Q436 936 436 1029Q436 1122 422 1161Q402 1217 356 1231Q341 1235 302 1235L253 1235L253 762Z"  horiz-adv-x="698" vert-adv-y="2048"  />

      
      <glyph glyph-name="uni53" unicode="&#x53;" d="M575 1043L425 1043Q424 1147 412 1192Q393 1262 340 1262Q291 1262 269 1217Q252 1181 252 1087Q252 962 283 894Q307 843 391 754Q495 646 528 582Q576 488 576 311Q576 129 518 56Q487 18 432.50-4.50Q378-27 315-27Q120-27 72 166Q57 226 55 368L205 368Q207 222 224 174Q249 103 310 103Q370 103 390 149Q412 198 412 306Q412 430 391 492Q370 551 303 622Q177 756 161 779Q117 843 101 911Q88 970 88 1053Q88 1392 331 1392Q485 1392 544 1252Q572 1186 575 1043Z"  horiz-adv-x="630" vert-adv-y="2048"  />

      
      <glyph glyph-name="uni54" unicode="&#x54;" d="M658 1365L658 1231L432 1231L432 0L275 0L275 1231L14 1231L14 1365L658 1365Z"  horiz-adv-x="671" vert-adv-y="2048"  />

      
      <glyph glyph-name="uni55" unicode="&#x55;" d="M706 1365L706 484Q706 325 701 253Q689 101 609 34Q536-27 403-27Q176-27 119 147Q96 219 96 484L96 1365L253 1365L253 484Q254 323 257 282Q264 179 302 141Q339 103 401 103Q502 103 532 196Q547 242 549 484L549 1365L706 1365Z"  horiz-adv-x="801" vert-adv-y="2048"  />

      
      <glyph glyph-name="uni56" unicode="&#x56;" d="M713 1365L427 0L286 0L0 1365L165 1365L336 495Q351 417 362 256Q372 416 387 495L560 1365L713 1365Z"  horiz-adv-x="713" vert-adv-y="2048"  />

      
      <glyph glyph-name="uni57" unicode="&#x57;" d="M1083 1365L867 0L717 0L575 826Q564 898 541 1136Q519 895 508 826L366 0L216 0L0 1365L164 1365L272 528Q283 433 291 295Q298 447 312 528L453 1365L630 1365L771 528Q778 481 794 295Q799 353 804 417Q808 465 816 528L926 1365L1083 1365Z"  horiz-adv-x="1083" vert-adv-y="2048"  />

      
      <glyph glyph-name="uni58" unicode="&#x58;" d="M640 1365L412 703L640 0L483 0L357 365Q336 427 320 542Q306 447 279 365L157 0L0 0L228 703L0 1365L157 1365L279 1035Q296 987 320 865Q336 978 357 1035L483 1365L640 1365Z"  horiz-adv-x="640" vert-adv-y="2048"  />

      
      <glyph glyph-name="uni59" unicode="&#x59;" d="M686 1365L432 581Q421 545 421 492L421 0L264 0L264 492Q264 542 251 581L0 1365L157 1365L288 955Q337 785 346 698Q361 830 400 955L532 1365L686 1365Z"  horiz-adv-x="686" vert-adv-y="2048"  />

      
      <glyph glyph-name="uni5a" unicode="&#x5a;" d="M639 1365L639 1235L191 130L639 130L639 0L41 0L41 130L489 1235L58 1235L58 1365L639 1365Z"  horiz-adv-x="680" vert-adv-y="2048"  />

      
      <glyph glyph-name="uni5b" unicode="&#x5b;" d="M351 1460L351 1347L218 1347Q219 1305 219 1292Q221 1229 221 1170L221-42L220-105Q220-188 218-248L351-248L351-361L77-361L77-338L78-286L79-189L81-109L81 1205Q81 1267 78 1382Q78 1403 77 1460L351 1460Z"  horiz-adv-x="386" vert-adv-y="2048"  />

      
      <glyph glyph-name="uni5c" unicode="&#x5c;" d="M28 1365L130 1365L474 0L371 0L28 1365Z"  horiz-adv-x="502" vert-adv-y="2048"  />

      
      <glyph glyph-name="uni5d" unicode="&#x5d;" d="M36-361L36-248L168-248Q168-206 167-193Q166-130 166-71L166 1141L167 1204Q167 1287 168 1347L36 1347L36 1460L310 1460L309 1437L308 1385L308 1288L306 1208L306-106Q306-168 309-283Q309-304 310-361L36-361Z"  horiz-adv-x="386" vert-adv-y="2048"  />

      
      <glyph glyph-name="uni5e" unicode="&#x5e;" d="M211 768L65 768L423 1369L600 1369L958 768L810 768L510 1262L211 768Z"  horiz-adv-x="1024" vert-adv-y="2048"  />

      
      <glyph glyph-name="uni5f" unicode="&#x5f;" d="M0-147L1024-147L1024-250L0-250L0-147Z"  horiz-adv-x="1024" vert-adv-y="2048"  />

      
      <glyph glyph-name="uni60" unicode="&#x60;" d="M531 1365L607 1115L506 1115L418 1365L531 1365Z"  horiz-adv-x="1024" vert-adv-y="2048"  />

      
      <glyph glyph-name="uni61" unicode="&#x61;" d="M575 0L447 0Q437 32 423 94Q352-24 244-24Q153-24 104 47Q48 130 48 258Q48 371 92 452Q158 577 340 577Q357 577 393 575L393 637Q393 734 387 771Q371 872 291 872Q232 872 208 810Q195 774 191 695L60 695Q61 827 100 891Q164 993 294 993Q447 993 504 885Q536 825 536 675L536 330Q536 165 555 77Q561 53 575 0M393 479Q310 479 274 458Q198 412 198 258Q198 98 279 98Q393 98 393 378L393 479Z"  horiz-adv-x="637" vert-adv-y="2048"  />

      
      <glyph glyph-name="uni62" unicode="&#x62;" d="M239 1464L239 854Q305 993 430 993Q486 993 535.50 965.50Q585 938 613 891Q697 753 697 503Q697 260 616 103Q552-24 431-24Q359-24 304 24Q277 47 239 107L239 0L96 0L96 1464L239 1464M401 871Q316 871 275 759Q237 656 237 483Q237 97 394 97Q472 97 505 195Q547 320 547 493Q547 871 401 871Z"  horiz-adv-x="744" vert-adv-y="2048"  />

      
      <glyph glyph-name="uni63" unicode="&#x63;" d="M585 699L435 699Q429 795 409 829Q384 872 333 872Q269 872 237 808Q198 730 198 484Q198 308 228 197Q256 98 331 98Q392 98 416 165Q429 200 435 283L585 283Q579-24 331-24Q193-24 132 63Q72 148 58 270Q48 363 48 466Q48 704 88 816Q151 993 333 993Q486 993 546 873Q578 809 585 699Z"  horiz-adv-x="612" vert-adv-y="2048"  />

      
      <glyph glyph-name="uni64" unicode="&#x64;" d="M646 1464L646 0L503 0L503 91Q431-24 310-24Q193-24 134 75Q48 218 48 477Q48 752 138 896Q198 993 318 993Q391 993 451 951Q486 926 507 885Q503 967 503 1011L503 1464L646 1464M348 871Q198 871 198 478Q198 97 349 97Q507 97 507 482Q507 871 348 871Z"  horiz-adv-x="742" vert-adv-y="2048"  />

      
      <glyph glyph-name="uni65" unicode="&#x65;" d="M639 467L196 467Q201 284 227 205Q263 97 342 97Q423 97 454 171Q468 206 477 270L618 270Q607 193 582 135Q513-24 355-24Q186-24 118 107Q48 244 48 476Q48 746 148 892Q218 993 346 993Q539 993 607 778Q638 680 639 467M489 590Q477 872 349 872Q214 872 198 590L489 590Z"  horiz-adv-x="687" vert-adv-y="2048"  />

      
      <glyph glyph-name="uni66" unicode="&#x66;" d="M276 956L406 956L406 840L276 840L276 0L133 0L133 840L21 840L21 956L133 956L133 1121Q133 1279 158 1350Q198 1461 340 1461Q374 1461 428 1452L428 1327Q382 1333 362 1333Q310 1333 292 1291Q276 1256 276 1121L276 956Z"  horiz-adv-x="424" vert-adv-y="2048"  />

      
      <glyph glyph-name="uni67" unicode="&#x67;" d="M604 969L604-40Q604-246 554-318Q476-429 336-429Q201-429 133-338Q84-273 78-137L216-137Q223-226 243-259Q274-312 337-312Q423-312 447-222Q461-168 461-40L461 102Q442 65 424 46Q379 1 299 1Q179 1 115 122Q48 248 48 481Q48 746 120 875Q186 993 304 993Q409 993 468 908L468 969L604 969M335 872Q269 872 237 785Q198 679 198 497Q198 297 244 190Q274 122 327 122Q393 122 428 218Q467 327 467 501Q467 872 335 872Z"  horiz-adv-x="700" vert-adv-y="2048"  />

      
      <glyph glyph-name="uni68" unicode="&#x68;" d="M239 1464L239 881Q277 928 300 946Q358 993 428 993Q483 993 525.50 963.50Q568 934 589 881Q615 817 615 634L615 0L472 0L472 634Q472 761 455 806Q431 871 374 871Q330 871 297 830Q264 789 249 716Q239 667 239 574L239 0L96 0L96 1464L239 1464Z"  horiz-adv-x="697" vert-adv-y="2048"  />

      
      <glyph glyph-name="uni69" unicode="&#x69;" d="M96 1142L96 1324L239 1324L239 1142L96 1142M239 969L239 0L96 0L96 969L239 969Z"  horiz-adv-x="335" vert-adv-y="2048"  />

      
      <glyph glyph-name="uni6a" unicode="&#x6a;" d="M247 1324L247 1142L104 1142L104 1324L247 1324M247 969L247-76Q247-201 240-255Q227-361 155-403Q115-427 37-427Q25-427 0-427L0-313Q57-316 81-283Q100-253 103-178Q104-157 104-76L104 969L247 969Z"  horiz-adv-x="343" vert-adv-y="2048"  />

      
      <glyph glyph-name="uni6b" unicode="&#x6b;" d="M239 538L457 969L619 969L398 526L654 0L491 0L239 515L239 0L96 0L96 1464L239 1464L239 538Z"  horiz-adv-x="654" vert-adv-y="2048"  />

      
      <glyph glyph-name="uni6c" unicode="&#x6c;" d="M239 1464L239 0L96 0L96 1464L239 1464Z"  horiz-adv-x="335" vert-adv-y="2048"  />

      
      <glyph glyph-name="uni6d" unicode="&#x6d;" d="M234 969L234 857Q307 993 415 993Q552 993 590 834Q664 993 802 993Q922 993 982 885Q1022 814 1022 644L1022 0L879 0L879 644Q879 749 858 805Q833 872 767 872Q692 872 656 776Q631 709 631 608L631 0L488 0L488 593Q488 724 477 779Q469 819 443 845.50Q417 872 386 872Q318 872 275 779Q240 703 240 622L240 0L97 0L97 969L234 969Z"  horiz-adv-x="1104" vert-adv-y="2048"  />

      
      <glyph glyph-name="uni6e" unicode="&#x6e;" d="M233 969L233 867Q301 993 417 993Q537 993 589 875Q619 807 619 620L619 0L476 0L476 605Q474 776 457 812Q429 872 378 872Q344 872 313 844Q282 816 264 770Q239 704 239 605L239 0L96 0L96 969L233 969Z"  horiz-adv-x="701" vert-adv-y="2048"  />

      
      <glyph glyph-name="uni6f" unicode="&#x6f;" d="M349 993Q409 993 463.50 966.50Q518 940 549 895Q641 763 641 484Q641 207 549 74Q518 29 463 2.50Q408-24 345-24Q281-24 226 2.50Q171 29 139 74Q48 207 48 481Q48 764 139 895Q208 993 349 993M342 872Q198 872 198 484Q198 97 345 97Q491 97 491 480Q491 674 455 778Q422 872 342 872Z"  horiz-adv-x="688" vert-adv-y="2048"  />

      
      <glyph glyph-name="uni70" unicode="&#x70;" d="M233 969L233 843Q261 906 292 935Q351 993 438 993Q559 993 622 887Q695 764 695 525Q695 232 619 89Q589 34 526 1Q480-24 427-24Q322-24 239 79L239-429L96-429L96 969L233 969M398 872Q365 872 333 846Q301 820 282 777Q235 672 235 486Q235 309 272 207Q289 158 323.50 127.50Q358 97 397 97Q545 97 545 497Q545 670 518 761Q502 813 470 842.50Q438 872 398 872Z"  horiz-adv-x="743" vert-adv-y="2048"  />

      
      <glyph glyph-name="uni71" unicode="&#x71;" d="M645 969L645-429L502-429L502 85Q424-24 315-24Q178-24 112 109Q48 239 48 472Q48 731 116 858Q189 993 320 993Q408 993 462 937Q481 917 509 866L509 969L645 969M341 872Q270 872 234 780Q198 685 198 472Q198 97 338 97Q425 97 473 222Q507 308 507 478Q507 683 469 767Q422 872 341 872Z"  horiz-adv-x="741" vert-adv-y="2048"  />

      
      <glyph glyph-name="uni72" unicode="&#x72;" d="M232 969L232 825Q316 993 424 993Q450 993 487 976L487 825Q453 845 424 845Q383 845 343 816.50Q303 788 277 740Q239 668 239 516L239 0L96 0L96 969L232 969Z"  horiz-adv-x="486" vert-adv-y="2048"  />

      
      <glyph glyph-name="uni73" unicode="&#x73;" d="M493 696L356 696Q351 786 340 821Q323 872 281 872Q209 872 209 749Q209 669 245 619Q269 587 348 519Q410 466 438 430Q500 351 500 232Q500 116 448 52Q386-24 278-24Q186-24 120 34Q41 103 43 280L181 280Q182 212 188 183Q205 98 272 98Q358 98 358 218Q358 309 321 362Q298 395 223 455Q124 535 92 605Q66 662 66 733Q66 845 119 921Q171 993 283 993Q431 993 472 867Q488 818 493 696Z"  horiz-adv-x="539" vert-adv-y="2048"  />

      
      <glyph glyph-name="uni74" unicode="&#x74;" d="M269 1223L269 956L404 956L404 840L269 840L269 255Q269 168 285 133Q300 98 340 98Q363 98 404 119L404-1Q332-24 293-24Q205-24 163 50Q126 114 126 212L126 840L17 840L17 956L126 956L126 1223L269 1223Z"  horiz-adv-x="418" vert-adv-y="2048"  />

      
      <glyph glyph-name="uni75" unicode="&#x75;" d="M603 969L603 0L466 0L466 85Q434 35 406 14Q356-24 290-24Q173-24 119 99Q89 167 89 351L89 969L232 969L232 335Q232 212 251 157Q259 131 281.50 114Q304 97 330 97Q359 97 385.50 120Q412 143 426 179Q460 273 460 413L460 969L603 969Z"  horiz-adv-x="698" vert-adv-y="2048"  />

      
      <glyph glyph-name="uni76" unicode="&#x76;" d="M597 969L376 0L219 0L0 969L145 969L272 403Q291 313 304 178Q309 321 326 403L451 969L597 969Z"  horiz-adv-x="597" vert-adv-y="2048"  />

      
      <glyph glyph-name="uni77" unicode="&#x77;" d="M947 969L766 0L624 0L498 566Q488 613 473 751Q460 620 448 566L325 0L183 0L0 969L145 969L242 396Q251 341 257 221Q267 362 273 396L404 969L544 969L673 410Q684 363 691 221Q699 364 708 410L810 969L947 969Z"  horiz-adv-x="947" vert-adv-y="2048"  />

      
      <glyph glyph-name="uni78" unicode="&#x78;" d="M577 969L388 500L577 0L426 0L324 275Q303 333 289 401Q276 326 256 275L148 0L0 0L197 500L0 969L152 969L256 713Q271 674 289 580Q303 658 325 714L426 969L577 969Z"  horiz-adv-x="577" vert-adv-y="2048"  />

      
      <glyph glyph-name="uni79" unicode="&#x79;" d="M598 969L260-429L114-429L214-11L0 969L143 969L270 373Q286 292 297 194Q312 354 317 370L459 969L598 969Z"  horiz-adv-x="598" vert-adv-y="2048"  />

      
      <glyph glyph-name="uni7a" unicode="&#x7a;" d="M525 969L525 846L171 123L542 123L542 0L21 0L21 123L375 846L37 846L37 969L525 969Z"  horiz-adv-x="582" vert-adv-y="2048"  />

      
      <glyph glyph-name="uni7b" unicode="&#x7b;" d="M210 665Q249 628 265 564Q276 516 276 425L276-56Q277-148 285-175Q295-212 303-220Q319-238 338-242Q350-244 383-245L383-360Q362-360 344-360Q255-360 220-326Q158-265 158-58L158 412Q158 485 148 533Q141 561 130 576Q120 589 94 607L94 732Q124 749 136 774Q157 817 158 919L158 1179Q158 1314 189 1377Q212 1426 252 1444Q283 1458 344 1458Q359 1458 383 1458L383 1342Q308 1344 292 1296Q276 1247 276 1160L276 901Q276 788 258 737Q244 698 210 665Z"  horiz-adv-x="477" vert-adv-y="2048"  />

      
      <glyph glyph-name="uni7c" unicode="&#x7c;" d="M434 1365L589 1365L589-341L434-341L434 1365Z"  horiz-adv-x="1024" vert-adv-y="2048"  />

      
      <glyph glyph-name="uni7d" unicode="&#x7d;" d="M267 665Q229 701 216 749Q201 802 201 901L201 1160Q201 1249 183 1300Q166 1343 94 1342L94 1458Q118 1458 133 1458Q218 1458 255 1424Q319 1367 319 1179L319 919Q320 844 328 810Q336 775 351 756Q360 745 383 732L383 607Q349 584 340 564Q318 520 319 412L319-58Q319-207 290-274Q266-330 226-347Q195-360 133-360Q115-360 94-360L94-245Q139-245 156-235Q177-221 182-205Q198-164 198-138Q201-84 201-56L201 425Q201 525 215 573Q231 631 267 665Z"  horiz-adv-x="477" vert-adv-y="2048"  />

      
      <glyph glyph-name="uni7e" unicode="&#x7e;" d="M277 1190L193 1256Q231 1334 274 1386Q355 1484 468 1484Q547 1484 703 1404Q792 1359 824 1349Q867 1334 901 1334Q1003 1334 1090 1488L1173 1423Q1131 1337 1090 1288Q1008 1193 898 1193Q846 1193 774 1224Q734 1240 662 1276Q525 1344 462 1344Q393 1344 341 1284Q311 1250 277 1190Z"  horiz-adv-x="1365" vert-adv-y="2048"  />

      
      <glyph glyph-name="unic0" unicode="&#xc0;" d="M421 1374L713 0L563 0L469 445L239 445L143 0L0 0L294 1374L421 1374M441 575L378 895Q360 990 353 1104Q348 1050 347 1033Q340 951 329 895L266 575L441 575Z"  horiz-adv-x="713" vert-adv-y="2048"  />

      
      <glyph glyph-name="unic1" unicode="&#xc1;" d="M96 1365L518 1365L518 1231L253 1231L253 796L334 796Q433 796 486 745Q596 641 596 384Q596 135 472 38Q423 0 327 0L96 0L96 1365M253 659L253 134L323 134Q372 134 394 174Q432 242 432 385Q432 552 393 617Q368 659 319 659L253 659Z"  horiz-adv-x="643" vert-adv-y="2048"  />

      
      <glyph glyph-name="unic2" unicode="&#xc2;" d="M96 1365L320 1365Q596 1365 596 1035Q596 789 455 720Q523 692 557 649Q634 554 634 378Q634 228 581 131Q530 38 438 12Q395 0 333 0L96 0L96 1365M253 777L307 777Q432 777 432 1004Q432 1165 388 1209Q362 1235 306 1235L253 1235L253 777M253 130L309 130Q380 130 416 169Q470 229 470 382Q470 642 309 642L253 642L253 130Z"  horiz-adv-x="675" vert-adv-y="2048"  />

      
      <glyph glyph-name="unic3" unicode="&#xc3;" d="M530 1365L530 1231L253 1231L253 0L96 0L96 1365L530 1365Z"  horiz-adv-x="544" vert-adv-y="2048"  />

      
      <glyph glyph-name="unic4" unicode="&#xc4;" d="M0-191L0 134L72 134L302 1365L483 1365L717 134L789 134L789-191L632-191L632 0L157 0L157-191L0-191M228 134L560 134L432 884Q425 925 396 1120L392 1149Q374 1008 354 886L228 134Z"  horiz-adv-x="789" vert-adv-y="2048"  />

      
      <glyph glyph-name="unic5" unicode="&#xc5;" d="M515 1365L515 1231L253 1231L253 767L515 767L515 633L253 633L253 134L532 134L532 0L96 0L96 1365L515 1365Z"  horiz-adv-x="546" vert-adv-y="2048"  />

      
      <glyph glyph-name="unic6" unicode="&#xc6;" d="M839 1365L1004 1365L709 721L1030 0L864 0L587 679L587 0L444 0L444 679L167 0L0 0L322 721L26 1365L192 1365L444 744L444 1365L587 1365L587 744L839 1365Z"  horiz-adv-x="1031" vert-adv-y="2048"  />

      
      <glyph glyph-name="unic7" unicode="&#xc7;" d="M259 633L259 767L337 767Q387 767 408 777Q485 815 485 1012Q485 1163 444 1223Q419 1258 363 1258Q283 1258 262 1191Q252 1160 247 1072L103 1072Q107 1153 114 1198Q132 1301 211 1350Q279 1392 382 1392Q503 1392 567 1327Q649 1243 649 1047Q649 900 593 807Q553 741 476 700Q553 684 595 642Q643 595 657 532Q673 465 673 377Q673 131 585 40Q520-27 358-27Q255-27 203 5Q118 58 101 176Q95 218 92 289L235 289Q244 176 268 142Q297 100 361 100Q432 100 463 144Q497 192 503 259Q509 313 509 375Q509 491 487 542Q448 633 343 633L259 633Z"  horiz-adv-x="765" vert-adv-y="2048"  />

      
      <glyph glyph-name="unic8" unicode="&#xc8;" d="M96 1365L253 1365L253 443Q252 376 246 321Q256 363 263 402Q268 429 276 456L573 1365L744 1365L744 0L587 0L587 876Q590 968 594 1045Q583 998 578 978Q561 904 552 876L260 0L96 0L96 1365Z"  horiz-adv-x="839" vert-adv-y="2048"  />

      
      <glyph glyph-name="unic9" unicode="&#xc9;" d="M96 1365L253 1365L253 443Q252 376 246 321Q256 363 263 402Q268 429 276 456L573 1365L744 1365L744 0L587 0L587 876Q590 968 594 1045Q583 998 578 978Q561 904 552 876L260 0L96 0L96 1365M533 1726L645 1726Q638 1627 587 1560Q527 1482 420 1482Q304 1482 243 1576Q201 1638 195 1726L308 1726Q331 1594 415 1594Q507 1594 533 1726Z"  horiz-adv-x="839" vert-adv-y="2048"  />

      
      <glyph glyph-name="unica" unicode="&#xca;" d="M253 744L505 1365L671 1365L387 715L697 0L530 0L253 679L253 0L96 0L96 1365L253 1365L253 744Z"  horiz-adv-x="710" vert-adv-y="2048"  />

      
      <glyph glyph-name="unicb" unicode="&#xcb;" d="M713 0L560 0L387 870Q372 949 362 1109Q351 948 336 870L165 0L0 0L286 1365L427 1365L713 0Z"  horiz-adv-x="713" vert-adv-y="2048"  />

      
      <glyph glyph-name="unicc" unicode="&#xcc;" d="M931 1365L1000 0L843 0L815 734L809 837Q809 879 810 917Q811 956 811 1035Q789 877 756 734L610 0L446 0L287 764Q278 806 269 867Q256 960 244 1035Q246 934 246 888Q246 841 240 764L212 0L55 0L123 1365L303 1365L494 479Q508 414 513 365Q522 286 528 231Q542 392 563 479L753 1365L931 1365Z"  horiz-adv-x="1054" vert-adv-y="2048"  />

      
      <glyph glyph-name="unicd" unicode="&#xcd;" d="M253 1365L253 766L580 766L580 1365L737 1365L737 0L580 0L580 632L253 632L253 0L96 0L96 1365L253 1365Z"  horiz-adv-x="832" vert-adv-y="2048"  />

      
      <glyph glyph-name="unice" unicode="&#xce;" d="M430 1392Q500 1392 565.50 1359Q631 1326 669 1272Q803 1086 803 682Q803 281 669 93Q630 38 564.50 5.50Q499-27 426-27Q352-27 286 5.50Q220 38 181 93Q48 281 48 677Q48 1086 181 1272Q222 1328 288 1360Q354 1392 430 1392M422 1262Q330 1262 279 1143Q212 987 212 682Q212 379 279 222Q329 103 426 103Q522 103 572 222Q639 379 639 675Q639 1262 422 1262Z"  horiz-adv-x="850" vert-adv-y="2048"  />

      
      <glyph glyph-name="unicf" unicode="&#xcf;" d="M710 1365L710 0L553 0L553 1231L253 1231L253 0L96 0L96 1365L710 1365Z"  horiz-adv-x="806" vert-adv-y="2048"  />

      
      <glyph glyph-name="unid0" unicode="&#xd0;" d="M253 533L253 0L96 0L96 1365L320 1365Q441 1365 510 1299Q562 1250 585.50 1165Q609 1080 609 943Q609 750 556 660Q507 578 427 548Q387 533 320 533L253 533M253 670L302 670Q378 670 406 713Q445 773 445 941Q445 1144 385 1204Q358 1231 302 1231L253 1231L253 670Z"  horiz-adv-x="642" vert-adv-y="2048"  />

      
      <glyph glyph-name="unid1" unicode="&#xd1;" d="M743 1034L593 1034Q586 1142 559 1193Q521 1262 438 1262Q302 1262 255 1074Q212 907 212 635Q212 355 266 228Q291 170 335.50 136.50Q380 103 432 103Q576 103 593 371L743 371Q730-27 419-27Q236-27 151 108Q98 190 73 324.50Q48 459 48 657Q48 909 80 1048Q121 1223 207.50 1307.50Q294 1392 431 1392Q627 1392 704 1228Q741 1148 743 1034Z"  horiz-adv-x="784" vert-adv-y="2048"  />

      
      <glyph glyph-name="unid2" unicode="&#xd2;" d="M658 1365L658 1231L432 1231L432 0L275 0L275 1231L14 1231L14 1365L658 1365Z"  horiz-adv-x="671" vert-adv-y="2048"  />

      
      <glyph glyph-name="unid3" unicode="&#xd3;" d="M690 1365L443 324Q402 152 328 74Q246-11 104-11Q65-11 23 4L23 153Q63 128 93 128Q144 128 181 155Q218 182 243 239L-27 1365L136 1365L293 638Q317 533 330 462Q343 532 366 638L517 1365L690 1365Z"  horiz-adv-x="662" vert-adv-y="2048"  />

      
      <glyph glyph-name="unid4" unicode="&#xd4;" d="M420 1577L577 1577L577 1294Q675 1286 754 1223Q860 1140 908 977Q948 842 948 685Q948 457 864 284Q772 92 577 68L577-259L420-259L420 68Q332 73 259 127Q145 212 89 386Q48 514 48 671Q48 905 138 1079Q240 1277 420 1294L420 1577M420 1164Q353 1149 298 1060Q212 919 212 677Q212 431 298 291Q335 231 377 210Q392 202 420 197L420 1164M577 200Q624 209 656.50 237.50Q689 266 719 324Q784 452 784 686Q784 952 705 1071Q651 1153 577 1163L577 200Z"  horiz-adv-x="995" vert-adv-y="2048"  />

      
      <glyph glyph-name="unid5" unicode="&#xd5;" d="M640 1365L412 703L640 0L483 0L357 365Q336 427 320 542Q306 447 279 365L157 0L0 0L228 703L0 1365L157 1365L279 1035Q296 987 320 865Q336 978 357 1035L483 1365L640 1365Z"  horiz-adv-x="640" vert-adv-y="2048"  />

      
      <glyph glyph-name="unid6" unicode="&#xd6;" d="M713 1365L713 134L801 134L801-191L644-191L644 0L96 0L96 1365L253 1365L253 134L556 134L556 1365L713 1365Z"  horiz-adv-x="814" vert-adv-y="2048"  />

      
      <glyph glyph-name="unid7" unicode="&#xd7;" d="M560 0L560 595Q451 527 337 527Q181 527 123 642Q89 708 89 897L89 1368L246 1368L246 897Q246 772 270 726Q303 662 387 662Q456 662 505 703Q560 748 560 848L560 1368L717 1368L717 0L560 0Z"  horiz-adv-x="813" vert-adv-y="2048"  />

      
      <glyph glyph-name="unid8" unicode="&#xd8;" d="M1054 1365L1054 0L96 0L96 1365L253 1365L253 134L497 134L497 1365L654 1365L654 134L897 134L897 1365L1054 1365Z"  horiz-adv-x="1150" vert-adv-y="2048"  />

      
      <glyph glyph-name="unid9" unicode="&#xd9;" d="M1054 1365L1054 134L1141 134L1141-191L984-191L984 0L96 0L96 1365L253 1365L253 134L496 134L496 1365L653 1365L653 134L897 134L897 1365L1054 1365Z"  horiz-adv-x="1154" vert-adv-y="2048"  />

      
      <glyph glyph-name="unida" unicode="&#xda;" d="M335 1365L335 797L412 797Q532 797 594 748Q714 651 714 382Q714 121 581 38Q519 0 412 0L178 0L178 1231L14 1231L14 1365L335 1365M335 660L335 134L412 134Q475 134 502 173Q550 241 550 387Q550 547 503 618Q475 660 412 660L335 660Z"  horiz-adv-x="761" vert-adv-y="2048"  />

      
      <glyph glyph-name="unidb" unicode="&#xdb;" d="M253 1365L253 797L330 797Q449 797 512 746Q633 647 633 388Q633 125 498 38Q439 0 330 0L96 0L96 1365L253 1365M253 660L253 134L330 134Q400 134 434.50 196.50Q469 259 469 387Q469 551 421 621Q395 660 330 660L253 660M860 1365L860 0L703 0L703 1365L860 1365Z"  horiz-adv-x="955" vert-adv-y="2048"  />

      
      <glyph glyph-name="unidc" unicode="&#xdc;" d="M253 1365L253 796L329 796Q450 796 512 747Q632 653 632 386Q632 122 499 38Q437 0 329 0L96 0L96 1365L253 1365M253 134L329 134Q393 134 420 174Q468 244 468 389Q468 578 406 638Q384 659 329 659L253 659L253 134Z"  horiz-adv-x="680" vert-adv-y="2048"  />

      
      <glyph glyph-name="unidd" unicode="&#xdd;" d="M257 766L591 766Q583 970 551 1076Q494 1262 385 1262Q282 1262 232 1098Q203 1003 198 890L41 890Q43 1086 119 1219Q217 1392 381 1392Q453 1392 517 1356.50Q581 1321 623 1258Q757 1062 757 682Q757 304 623 106Q533-27 377-27Q208-27 112 127Q53 220 41 360L198 360Q209 259 244 194Q293 103 377 103Q571 103 591 632L257 632L257 766Z"  horiz-adv-x="804" vert-adv-y="2048"  />

      
      <glyph glyph-name="unide" unicode="&#xde;" d="M253 770L383 770Q397 1025 465 1171Q567 1392 759 1392Q913 1392 1003 1258Q1137 1061 1137 683Q1137 304 1004 106Q914-27 760-27Q547-27 446 241Q392 387 383 636L253 636L253 0L96 0L96 1365L253 1365L253 770M756 1262Q664 1262 613 1143Q546 987 546 682Q546 378 613 222Q664 103 760 103Q856 103 906 222Q973 380 973 675Q973 1262 756 1262Z"  horiz-adv-x="1184" vert-adv-y="2048"  />

      
      <glyph glyph-name="unidf" unicode="&#xdf;" d="M445 0L445 631L396 631Q351 630 322 591Q297 555 276 474Q268 443 238 294L195 105Q179 46 159 0L0 0Q53 136 66 211L100 381Q126 509 140 546Q172 630 210 659Q226 671 260 681Q194 703 162 744Q98 825 98 1011Q98 1182 140 1257Q190 1346 292 1360Q330 1365 396 1365L602 1365L602 0L445 0M445 1235L396 1235Q331 1235 303 1207Q262 1167 262 1029Q262 898 283 847Q316 762 396 762L445 762L445 1235Z"  horiz-adv-x="698" vert-adv-y="2048"  />

      
      <glyph glyph-name="uni2020" unicode="&#x2020;" d="M337 1365L337 967L501 967L501 832L337 832L337 0L201 0L201 832L36 832L36 967L201 967L201 1365L337 1365Z"  horiz-adv-x="537" vert-adv-y="2048"  />

      
      <glyph glyph-name="unib0" unicode="&#xb0;" d="M370 1363Q479 1363 560 1279Q634 1202 634 1095Q634 980 554 902Q476 824 366 824Q246 824 166 912Q96 988 96 1093Q96 1220 187 1296Q266 1363 370 1363M361 1274Q295 1274 245 1227Q186 1171 186 1094Q186 1027 230 975Q283 913 365 913Q435 913 488 964Q544 1016 544 1091Q544 1167 493 1219Q439 1274 361 1274Z"  horiz-adv-x="729" vert-adv-y="2048"  />

      
      <glyph glyph-name="unia7" unicode="&#xa7;" d="M527 1120L399 1120Q396 1160 385 1192Q357 1274 306 1274Q262 1274 235 1209Q217 1166 217 1109Q217 1043 249 989Q275 946 299 926L358 878Q435 816 473 771Q555 674 555 532Q555 412 500 310Q479 270 435 213Q518 104 518-32Q518-176 451-275Q391-363 286-363Q133-363 78-163Q70-133 60-69L188-69Q194-138 216-182Q246-242 289-242Q326-242 349-206Q392-141 392-43Q392 52 334 118L247 180Q158 243 119 293Q43 389 43 539Q43 663 100 761Q126 805 171 865Q91 961 91 1098Q91 1239 161 1326Q218 1397 315 1397Q445 1397 503 1240Q524 1182 527 1120M242 795Q168 652 168 545Q168 420 268 344L358 276Q431 406 431 514Q431 639 324 727L242 795Z"  horiz-adv-x="612" vert-adv-y="2048"  />

      
      <glyph glyph-name="uni2022" unicode="&#x2022;" d="M689 978Q802 978 885 895Q969 812 969 694Q969 576 885 493Q803 410 685 410Q567 410 485 493Q401 576 401 693Q401 814 485 895Q570 978 689 978Z"  horiz-adv-x="1365" vert-adv-y="2048"  />

      
      <glyph glyph-name="unib6" unicode="&#xb6;" d="M228-200L228 646Q165 648 120 695Q80 736 57 820Q35 900 35 997Q35 1125 72 1217Q133 1365 296 1365L620 1365L620 1237L578 1237L578-200L447-200L447 1237L359 1237L359-200L228-200Z"  horiz-adv-x="683" vert-adv-y="2048"  />

      
      <glyph glyph-name="unib2" unicode="&#xb2;" d="M266 1365L266 0L109 0L109 1365L266 1365Z"  horiz-adv-x="375" vert-adv-y="2048"  />

      
      <glyph glyph-name="uniae" unicode="&#xae;" d="M434 652L434 300L323 300L323 1079L455 1079Q546 1079 580 1054Q642 1009 642 872Q642 769 602 718Q590 703 561 689Q613 660 641 523L661 427Q672 378 705 300L592 300Q577 331 568 365L542 470Q516 593 499 624Q482 652 455 652L434 652M434 742L455 742Q485 742 502 762Q527 791 527 882Q527 961 501 980Q488 990 455 990L434 990L434 742M519 1392Q601 1392 677.50 1359.50Q754 1327 801 1272Q882 1179 917 1034Q959 865 959 682Q959 487 918.50 334.50Q878 182 801 93Q754 37 677 5Q600-27 514-27Q427-27 350 5Q273 37 226 93Q146 187 110 331Q68 498 68 678Q68 877 108.50 1030.50Q149 1184 226 1272Q329 1392 519 1392M509 1313Q366 1313 283 1183Q228 1097 203 977.50Q178 858 178 682Q178 429 229 291Q316 52 514 52Q662 52 744 182Q799 268 824 388Q849 508 849 685Q849 936 799 1075Q712 1313 509 1313Z"  horiz-adv-x="1028" vert-adv-y="2048"  />

      
      <glyph glyph-name="unia9" unicode="&#xa9;" d="M730 877L624 877Q621 926 612 953Q595 1005 539 1005Q465 1005 437 906Q412 815 412 667Q412 507 444 439Q474 374 535 374Q613 374 624 524L731 524Q723 285 528 285Q415 285 360 364Q297 455 297 678Q297 897 360 1003Q414 1094 535 1094Q724 1094 730 877M519 1392Q601 1392 677.50 1359.50Q754 1327 801 1272Q882 1179 917 1034Q959 865 959 682Q959 487 918.50 334.50Q878 182 801 93Q754 37 677 5Q600-27 514-27Q427-27 350 5Q273 37 226 93Q146 187 110 331Q68 498 68 678Q68 877 108.50 1030.50Q149 1184 226 1272Q329 1392 519 1392M509 1313Q366 1313 283 1183Q228 1097 203 977.50Q178 858 178 682Q178 429 229 291Q316 52 514 52Q662 52 744 182Q799 268 824 388Q849 508 849 685Q849 936 799 1075Q712 1313 509 1313Z"  horiz-adv-x="1028" vert-adv-y="2048"  />

      
      <glyph glyph-name="uni2122" unicode="&#x2122;" d="M930 1365L930 546L837 546L837 1107L713 546L645 546L524 1104L524 546L431 546L431 1365L558 1365L679 831L805 1365L930 1365M408 1365L408 1259L262 1259L262 546L163 546L163 1259L15 1259L15 1365L408 1365Z"  horiz-adv-x="1010" vert-adv-y="2048"  />

      
      <glyph glyph-name="uni80" unicode="&#x80;" d="M14 1365L767 1365L767 1231L432 1231L432 802Q512 848 600 848Q755 848 822 689Q867 582 867 416Q867 190 815 28Q773-101 684-152Q612-193 486-192L486-62Q556-66 590-51Q653-23 678 104Q703 224 703 408Q703 557 663 637Q624 714 557 714Q494 714 467 654Q432 576 432 422L432 0L275 0L275 1231L14 1231L14 1365Z"  horiz-adv-x="914" vert-adv-y="2048"  />

      
      <glyph glyph-name="uni90" unicode="&#x90;" d="M127 1463L270 1463L270 1202L488 1202L488 1105L270 1105L270 897Q322 957 367 975Q412 993 458 993Q595 993 661 833Q715 700 715 482Q715 120 605-41Q548-124 458-140Q425-146 376-146L376-11Q473-13 505 56Q565 187 565 480Q565 871 418 871Q344 871 305 787Q270 710 270 605L270 0L127 0L127 1105L27 1105L27 1202L127 1202L127 1463Z"  horiz-adv-x="764" vert-adv-y="2048"  />

      
      <glyph glyph-name="uni2260" unicode="&#x2260;" d="M73 599L221 599L343 774L73 774L73 862L405 862L517 1022L591 971L515 862L610 862L610 774L453 774L331 599L610 599L610 511L270 511L166 363L92 414L160 511L73 511L73 599Z"  horiz-adv-x="683" vert-adv-y="2048"  />

      
      <glyph glyph-name="uni81" unicode="&#x81;" d="M530 1365L530 1231L253 1231L253 0L96 0L96 1365L530 1365M312 1753L452 1753L333 1457L214 1457L312 1753Z"  horiz-adv-x="544" vert-adv-y="2048"  />

      
      <glyph glyph-name="uni0192" unicode="&#x0192;" d="M96 969L509 969L509 846L239 846L239 0L96 0L96 969M243 1365L356 1365L268 1115L167 1115L243 1365Z"  horiz-adv-x="522" vert-adv-y="2048"  />

      
      <glyph glyph-name="uni221E" unicode="&#x221E;" d="M685 621Q632 546 589 501Q482 388 338 388Q198 388 113 486Q39 571 39 701Q39 831 118 914Q205 1005 339 1005Q524 1005 681 772Q731 845 776 891Q886 1004 1028 1004Q1171 1004 1257 903Q1327 819 1327 694Q1327 560 1244 476Q1159 389 1028 389Q892 389 781 500Q736 546 685 621M738 697Q776 639 809 600Q904 487 1017 487Q1102 487 1158 545Q1214 604 1214 698Q1214 798 1148 856Q1092 906 1015 906Q899 906 800 784Q788 768 763 733Q738 698 738 697M627 696Q590 754 557 794Q461 907 347 907Q263 907 208 849Q152 790 152 696Q152 595 218 536Q274 487 351 487Q469 487 565 608Q578 625 603 660Q628 695 627 696Z"  horiz-adv-x="1365" vert-adv-y="2048"  />

      
      <glyph glyph-name="unib1" unicode="&#xb1;" d="M296 764L73 764L73 854L297 854L297 1078L387 1078L387 854L610 854L610 764L386 764L386 541L296 541L296 764M73 308L610 308L610 218L73 218L73 308Z"  horiz-adv-x="683" vert-adv-y="2048"  />

      
      <glyph glyph-name="uni2264" unicode="&#x2264;" d="M955 1214L955 1067L238 784L955 503L955 356L68 718L68 852L955 1214M955 297L955 160L68 160L68 297L955 297Z"  horiz-adv-x="1024" vert-adv-y="2048"  />

      
      <glyph glyph-name="uni2265" unicode="&#x2265;" d="M68 1214L955 852L955 718L68 356L68 503L785 784L68 1067L68 1214M68 297L955 297L955 160L68 160L68 297Z"  horiz-adv-x="1024" vert-adv-y="2048"  />

      
      <glyph glyph-name="unib3" unicode="&#xb3;" d="M96 1142L96 1324L239 1324L239 1142L96 1142M239 969L239 0L96 0L96 969L239 969Z"  horiz-adv-x="335" vert-adv-y="2048"  />

      
      <glyph glyph-name="unib5" unicode="&#xb5;" d="M239-429L96-429L96 969L239 969L239 335Q239 212 258 167Q281 111 336 111Q366 111 392.50 132.50Q419 154 433 190Q467 279 467 413L467 969L610 969L610 0L473 0L473 85Q415-7 329-7Q280-7 239 54L239-429Z"  horiz-adv-x="705" vert-adv-y="2048"  />

      
      <glyph glyph-name="uni2202" unicode="&#x2202;" d="M179 1252L197 1372Q363 1348 475 1300Q731 1191 857 938Q957 738 957 493Q957 277 858 146Q790 57 684 11Q601-25 508-25Q322-25 196 109Q66 247 66 442Q66 598 156 720Q226 815 336 859Q415 890 499 890Q632 890 713 824Q740 802 801 731L792 753Q741 889 715 931Q620 1074 467 1159Q342 1228 179 1252M519 777Q413 777 328 709Q270 662 236.50 589Q203 516 203 437Q203 284 305 183Q394 95 517 95Q622 95 704 166Q820 266 820 444Q820 605 723 697Q639 777 519 777Z"  horiz-adv-x="1024" vert-adv-y="2048"  />

      
      <glyph glyph-name="unia3" unicode="&#xa3;" d="M267 1365L267-63Q267-262 243-330Q225-380 181-404Q137-428 62-428Q17-428-7-425L-7-291Q30-293 39-293Q94-293 106-238Q110-221 110-83L110 1365L267 1365Z"  horiz-adv-x="377" vert-adv-y="2048"  />

      
      <glyph glyph-name="uniaa" unicode="&#xaa;" d="M548 766L548 632L213 632Q234 103 428 103Q519 103 569 210Q597 270 607 360L764 360Q750 204 678 104Q583-27 428-27Q272-27 181 106Q48 304 48 682Q48 1062 181 1258Q224 1321 288 1356.50Q352 1392 423 1392Q603 1392 702 1188Q762 1066 764 890L607 890Q601 1021 564 1126Q515 1262 420 1262Q300 1262 245 1042Q221 947 213 766L548 766Z"  horiz-adv-x="791" vert-adv-y="2048"  />

      
      <glyph glyph-name="uniba" unicode="&#xba;" d="M615 693L479 693Q471 747 455 784Q418 872 351 872Q286 872 246 794Q206 716 193 564L427 564L427 441L193 441Q198 334 217 265Q262 98 358 98Q451 98 479 280L615 280Q568-24 354-24Q194-24 112 146Q48 279 48 486Q48 696 114 831Q194 993 354 993Q514 993 584 817Q606 761 615 693Z"  horiz-adv-x="643" vert-adv-y="2048"  />

      
      <glyph glyph-name="uniaf" unicode="&#xaf;" d="M266 1365L266 0L109 0L109 1365L266 1365M133 1696L133 1523L-4 1523L-4 1696L133 1696M379 1696L379 1523L242 1523L242 1696L379 1696Z"  horiz-adv-x="375" vert-adv-y="2048"  />

      
      <glyph glyph-name="unibf" unicode="&#xbf;" d="M239 969L239 0L96 0L96 969L239 969M123 1324L123 1144L1 1144L1 1324L123 1324M335 1324L335 1144L213 1144L213 1324L335 1324Z"  horiz-adv-x="335" vert-adv-y="2048"  />

      
      <glyph glyph-name="uni0160" unicode="&#x0160;" d="M-7 0L480 1365L652 1365L652 797L733 797Q883 797 947 718Q1031 612 1031 390Q1031 161 934 65Q868 0 719 0L494 0L494 756Q494 904 500 1096Q473 939 444 851L154 0L-7 0M652 667L652 134L733 134Q867 134 867 391Q867 544 824 620Q797 667 733 667L652 667Z"  horiz-adv-x="1079" vert-adv-y="2048"  />

      
      <glyph glyph-name="uni0161" unicode="&#x0161;" d="M0 0L371 969L541 969L541 602L614 602Q730 602 782 554Q866 476 866 294Q866 97 760 30Q713 0 583 0L398 0L398 595Q398 664 403 772Q377 645 352 575L142 0L0 0M541 478L541 123L588 123Q637 123 651 128Q684 139 701 194Q716 242 716 295Q716 478 613 478L541 478Z"  horiz-adv-x="914" vert-adv-y="2048"  />

      
      <glyph glyph-name="uni0152" unicode="&#x0152;" d="M96 1365L253 1365L253 768L587 768L587 1365L744 1365L744 768L821 768Q941 768 1003 723Q1123 636 1123 385Q1123 123 989 38Q928 0 821 0L587 0L587 634L253 634L253 0L96 0L96 1365M744 634L744 134L821 134Q891 134 925 196Q959 258 959 386Q959 535 912 597Q883 634 821 634L744 634Z"  horiz-adv-x="1171" vert-adv-y="2048"  />

      
      <glyph glyph-name="uni0153" unicode="&#x0153;" d="M96 969L239 969L239 564L489 564L489 969L632 969L632 578L704 578Q810 578 866 539Q959 475 959 291Q959 0 704 0L489 0L489 441L239 441L239 0L96 0L96 969M632 455L632 123L704 123Q755 123 779 156Q809 197 809 289Q809 387 775 430Q756 455 704 455L632 455Z"  horiz-adv-x="1006" vert-adv-y="2048"  />

      
      <glyph glyph-name="unibc" unicode="&#xbc;" d="M247 1324L247 1142L104 1142L104 1324L247 1324M247 969L247-76Q247-201 240-255Q227-361 155-403Q115-427 37-427Q25-427 0-427L0-313Q57-316 81-283Q100-253 103-178Q104-157 104-76L104 969L247 969Z"  horiz-adv-x="343" vert-adv-y="2048"  />

      
      <glyph glyph-name="unibd" unicode="&#xbd;" d="M575 1043L425 1043Q424 1147 412 1192Q393 1262 340 1262Q291 1262 269 1217Q252 1181 252 1087Q252 962 283 894Q307 843 391 754Q495 646 528 582Q576 488 576 311Q576 129 518 56Q487 18 432.50-4.50Q378-27 315-27Q120-27 72 166Q57 226 55 368L205 368Q207 222 224 174Q249 103 310 103Q370 103 390 149Q412 198 412 306Q412 430 391 492Q370 551 303 622Q177 756 161 779Q117 843 101 911Q88 970 88 1053Q88 1392 331 1392Q485 1392 544 1252Q572 1186 575 1043Z"  horiz-adv-x="630" vert-adv-y="2048"  />

      
      <glyph glyph-name="uniac" unicode="&#xac;" d="M804 0L804 431L68 431L68 567L955 567L955 0L804 0Z"  horiz-adv-x="1024" vert-adv-y="2048"  />

      
      <glyph glyph-name="uni221A" unicode="&#x221A;" d="M1365 1693L1365 1569L967 1569L499 0L340 0L162 607L0 607L0 731L251 731L339 440Q348 412 372 315Q401 193 408 164L415 164Q425 204 464 348L520 557L623 900L859 1693L1365 1693Z"  horiz-adv-x="1365" vert-adv-y="2048"  />

      
      <glyph glyph-name="uni2248" unicode="&#x2248;" d="M106 712L22 769Q62 850 103 899Q185 997 298 997Q374 997 530 918Q619 873 653 862Q696 847 731 847Q799 847 849 899Q883 933 919 993L1002 936Q960 849 917 800Q837 707 728 707Q676 707 602 737Q564 753 494 788Q355 857 291 857Q223 857 171 802Q140 769 106 712M106 367L22 424Q62 506 102 554Q185 652 298 652Q375 652 530 574Q620 529 653 517Q695 503 731 503Q799 503 849 554Q882 588 919 648L1002 591Q960 504 917 455Q837 362 728 362Q676 362 602 392Q564 408 494 443Q355 512 291 512Q224 512 171 457Q140 424 106 367Z"  horiz-adv-x="1024" vert-adv-y="2048"  />

      
      <glyph glyph-name="uni2206" unicode="&#x2206;" d="M12 0L558 1365L710 1365L1258 0L12 0M204 129L1063 129L635 1205L204 129Z"  horiz-adv-x="1271" vert-adv-y="2048"  />

      
      <glyph glyph-name="uniab" unicode="&#xab;" d="M289 880L156 484L290 89L177 89L44 484L178 880L289 880M524 880L388 484L523 89L412 89L276 483L412 880L524 880Z"  horiz-adv-x="568" vert-adv-y="2048"  />

      
      <glyph glyph-name="unibb" unicode="&#xbb;" d="M157 881L291 484L157 90L45 90L179 484L45 881L157 881M389 881L524 484L389 90L278 90L412 484L277 881L389 881Z"  horiz-adv-x="568" vert-adv-y="2048"  />

      
      <glyph glyph-name="uni2026" unicode="&#x2026;" d="M663 196L663 0L526 0L526 196L663 196M286 196L286 0L149 0L149 196L286 196M1040 196L1040 0L903 0L903 196L1040 196Z"  horiz-adv-x="1187" vert-adv-y="2048"  />

      
      <glyph glyph-name="uni8e" unicode="&#x8e;" d="M392 783Q472 847 572 847Q711 847 775 742Q809 686 809 518L809 0L652 0L652 518Q652 622 633 660Q606 712 540 712Q471 712 421 642Q392 602 392 534L392 0L235 0L235 1231L14 1231L14 1365L739 1365L739 1231L392 1231L392 783Z"  horiz-adv-x="897" vert-adv-y="2048"  />

      
      <glyph glyph-name="uni9e" unicode="&#x9e;" d="M100 1202L100 1464L243 1464L243 1202L442 1202L442 1105L243 1105L243 881Q280 927 304 946Q362 993 432 993Q487 993 529.50 963Q572 933 593 881Q619 816 619 634L619 0L476 0L476 634Q476 762 459 806Q434 871 378 871Q334 871 301 830Q268 789 253 716Q243 667 243 574L243 0L100 0L100 1105L0 1105L0 1202L100 1202Z"  horiz-adv-x="708" vert-adv-y="2048"  />

      
      <glyph glyph-name="uni8d" unicode="&#x8d;" d="M253 744L505 1365L671 1365L387 715L697 0L530 0L253 679L253 0L96 0L96 1365L253 1365L253 744M382 1753L522 1753L403 1457L284 1457L382 1753Z"  horiz-adv-x="710" vert-adv-y="2048"  />

      
      <glyph glyph-name="uni9d" unicode="&#x9d;" d="M239 538L457 969L619 969L398 526L654 0L491 0L239 515L239 0L96 0L96 969L239 969L239 538M309 1365L422 1365L334 1115L233 1115L309 1365Z"  horiz-adv-x="654" vert-adv-y="2048"  />

      
      <glyph glyph-name="unibe" unicode="&#xbe;" d="M493 696L356 696Q351 786 340 821Q323 872 281 872Q209 872 209 749Q209 669 245 619Q269 587 348 519Q410 466 438 430Q500 351 500 232Q500 116 448 52Q386-24 278-24Q186-24 120 34Q41 103 43 280L181 280Q182 212 188 183Q205 98 272 98Q358 98 358 218Q358 309 321 362Q298 395 223 455Q124 535 92 605Q66 662 66 733Q66 845 119 921Q171 993 283 993Q431 993 472 867Q488 818 493 696Z"  horiz-adv-x="539" vert-adv-y="2048"  />

      
      <glyph glyph-name="uni2013" unicode="&#x2013;" d="M522 548L522 426L98 426L98 548L522 548Z"  horiz-adv-x="621" vert-adv-y="2048"  />

      
      <glyph glyph-name="uni2014" unicode="&#x2014;" d="M925 548L925 426L0 426L0 548L925 548Z"  horiz-adv-x="925" vert-adv-y="2048"  />

      
      <glyph glyph-name="uni201C" unicode="&#x201C;" d="M269 1365L202 935L75 935L169 1365L269 1365M472 1365L406 935L279 935L372 1365L472 1365Z"  horiz-adv-x="547" vert-adv-y="2048"  />

      
      <glyph glyph-name="uni201D" unicode="&#x201D;" d="M260 935L327 1365L454 1365L360 935L260 935M75 935L141 1365L268 1365L175 935L75 935Z"  horiz-adv-x="529" vert-adv-y="2048"  />

      
      <glyph glyph-name="uni2018" unicode="&#x2018;" d="M275 1367L208 937L81 937L175 1367L275 1367Z"  horiz-adv-x="350" vert-adv-y="2048"  />

      
      <glyph glyph-name="uni2019" unicode="&#x2019;" d="M295 1338L201 908L109 908L175 1338L295 1338Z"  horiz-adv-x="404" vert-adv-y="2048"  />

      
      <glyph glyph-name="uni201E" unicode="&#x201E;" d="M269 187L174-242L75-242L141 187L269 187M472 187L377-242L277-242L345 187L472 187Z"  horiz-adv-x="547" vert-adv-y="2048"  />

      
      <glyph glyph-name="unia1" unicode="&#xa1;" d="M690 1365L443 324Q402 152 328 74Q246-11 104-11Q65-11 23 4L23 153Q63 128 93 128Q144 128 181 155Q218 182 243 239L-27 1365L136 1365L293 638Q317 533 330 462Q343 532 366 638L517 1365L690 1365M444 1726L556 1726Q549 1627 498 1560Q438 1482 331 1482Q215 1482 154 1576Q112 1638 106 1726L219 1726Q242 1594 326 1594Q418 1594 444 1726Z"  horiz-adv-x="662" vert-adv-y="2048"  />

      
      <glyph glyph-name="unia2" unicode="&#xa2;" d="M598 969L260-429L114-429L214-11L0 969L143 969L270 373Q286 292 297 194Q312 354 317 370L459 969L598 969M409 1357L518 1357Q508 1254 461 1191Q402 1113 299 1113Q187 1113 127 1207Q89 1266 81 1357L190 1357Q212 1225 294 1225Q384 1225 409 1357Z"  horiz-adv-x="598" vert-adv-y="2048"  />

      
      <glyph glyph-name="uni8f" unicode="&#x8f;" d="M96 1365L253 1365L253 134L566 134L566 1365L723 1365L723 0L488 0L488-191L331-191L331 0L96 0L96 1365Z"  horiz-adv-x="828" vert-adv-y="2048"  />

      
      <glyph glyph-name="uni0178" unicode="&#x0178;" d="M96 969L239 969L239 123L475 123L475 969L618 969L618 0L451 0L451-150L308-150L308 0L96 0L96 969Z"  horiz-adv-x="713" vert-adv-y="2048"  />

      
      <glyph glyph-name="unib9" unicode="&#xb9;" d="M996 876Q1077 876 1120 803Q1171 714 1171 547Q1171 205 988 205Q904 205 863 277Q810 371 810 538Q810 705 864 798Q910 876 996 876M991 756Q961 756 947 690Q933 626 933 542Q933 421 954 364Q969 324 988 325Q1021 327 1033 390Q1048 464 1048 539Q1048 756 991 756M1148 130L1148 0L833 0L833 130L1148 130M744 1365L744 0L580 0L288 876Q279 908 246 1045Q250 968 253 876L253 0L96 0L96 1365L267 1365L564 456Q572 429 579 395Q584 363 594 321Q588 376 587 443L587 1365L744 1365Z"  horiz-adv-x="1246" vert-adv-y="2048"  />

      
      <glyph glyph-name="unia8" unicode="&#xa8;" d="M515 1365L515 1231L253 1231L253 767L515 767L515 633L253 633L253 134L532 134L532 0L96 0L96 1365L515 1365M232 1696L232 1523L95 1523L95 1696L232 1696M478 1696L478 1523L341 1523L341 1696L478 1696Z"  horiz-adv-x="573" vert-adv-y="2048"  />

      
      <glyph glyph-name="unib8" unicode="&#xb8;" d="M639 467L196 467Q201 284 227 205Q263 97 342 97Q423 97 454 171Q468 206 477 270L618 270Q607 193 582 135Q513-24 355-24Q186-24 118 107Q48 244 48 476Q48 746 148 892Q218 993 346 993Q539 993 607 778Q638 680 639 467M489 590Q477 872 349 872Q214 872 198 590L489 590M299 1324L299 1144L177 1144L177 1324L299 1324M511 1324L511 1144L389 1144L389 1324L511 1324Z"  horiz-adv-x="687" vert-adv-y="2048"  />

      
      <glyph glyph-name="uniff" unicode="&#xff;" d="M539 969L539 0L396 0L396 432L363 432Q320 432 299 413Q247 359 198 175Q167 61 143 0L1 0Q28 74 49 143L76 249Q101 356 148 422Q179 462 244 486Q184 497 148 536Q88 599 88 722Q88 969 310 969L539 969M396 853L325 853Q238 853 238 704Q238 605 277 566Q294 549 347 549L396 549L396 853Z"  horiz-adv-x="634" vert-adv-y="2048"  />

      
      <glyph glyph-name="unie0" unicode="&#xe0;" d="M575 0L447 0Q437 32 423 94Q352-24 244-24Q153-24 104 47Q48 130 48 258Q48 371 92 452Q158 577 340 577Q357 577 393 575L393 637Q393 734 387 771Q371 872 291 872Q232 872 208 810Q195 774 191 695L60 695Q61 827 100 891Q164 993 294 993Q447 993 504 885Q536 825 536 675L536 330Q536 165 555 77Q561 53 575 0M393 479Q310 479 274 458Q198 412 198 258Q198 98 279 98Q393 98 393 378L393 479Z"  horiz-adv-x="637" vert-adv-y="2048"  />

      
      <glyph glyph-name="unie1" unicode="&#xe1;" d="M604 1453L604 1322Q547 1305 474 1296Q368 1283 329 1255Q278 1221 256 1163Q204 1031 198 906Q232 947 260 964Q307 993 370 993Q488 993 551 883Q635 735 635 494Q635 273 562 125Q489-24 338-24Q176-24 108 152Q76 234 62 344.50Q48 455 48 628Q48 1015 137 1209Q194 1334 284 1379Q328 1401 445 1419Q564 1438 604 1453M344 872Q313 872 284 841.50Q255 811 237 759Q198 647 198 486Q198 329 235 211Q251 159 280 128Q309 97 341 97Q391 97 430 169Q454 216 471 331Q485 429 485 492Q485 626 453 750Q438 807 409 839.50Q380 872 344 872Z"  horiz-adv-x="682" vert-adv-y="2048"  />

      
      <glyph glyph-name="unie2" unicode="&#xe2;" d="M96 969L279 969Q419 969 481 927Q577 864 577 721Q577 572 449 509Q523 484 556 442Q605 378 605 271Q605 90 467 24Q417 0 279 0L96 0L96 969M239 591L279 591Q362 591 392 618Q427 649 427 710Q427 787 388 820Q356 846 279 846L239 846L239 591M239 468L239 123L279 123Q455 123 455 282Q455 396 393 441Q356 468 279 468L239 468Z"  horiz-adv-x="653" vert-adv-y="2048"  />

      
      <glyph glyph-name="unie3" unicode="&#xe3;" d="M96 969L509 969L509 846L239 846L239 0L96 0L96 969Z"  horiz-adv-x="522" vert-adv-y="2048"  />

      
      <glyph glyph-name="unie4" unicode="&#xe4;" d="M63 123L256 969L413 969L604 123L667 123L667-150L524-150L524 0L143 0L143-150L0-150L0 123L63 123M208 123L460 123L360 567Q348 626 335 791Q330 661 310 567L208 123Z"  horiz-adv-x="667" vert-adv-y="2048"  />

      
      <glyph glyph-name="unie5" unicode="&#xe5;" d="M639 467L196 467Q201 284 227 205Q263 97 342 97Q423 97 454 171Q468 206 477 270L618 270Q607 193 582 135Q513-24 355-24Q186-24 118 107Q48 244 48 476Q48 746 148 892Q218 993 346 993Q539 993 607 778Q638 680 639 467M489 590Q477 872 349 872Q214 872 198 590L489 590Z"  horiz-adv-x="687" vert-adv-y="2048"  />

      
      <glyph glyph-name="unie6" unicode="&#xe6;" d="M548 969L548 538L766 969L928 969L707 526L963 0L800 0L548 515L548 0L415 0L415 515L163 0L0 0L255 526L35 969L197 969L415 538L415 969L548 969Z"  horiz-adv-x="963" vert-adv-y="2048"  />

      
      <glyph glyph-name="unie7" unicode="&#xe7;" d="M210 713L69 713Q82 807 101 855Q129 924 200 961Q260 993 330 993Q448 993 511 918Q567 852 567 745Q567 641 513 586Q489 562 433 538Q500 514 531 475Q585 406 585 280Q585 203 561.50 136.50Q538 70 497 34Q432-24 313-24Q163-24 103 76Q65 139 55 254L191 254Q195 199 203 172Q224 98 303 98Q368 98 404 151Q435 198 435 278Q435 376 397 430Q378 457 347 464Q328 468 294 468L215 468L215 591L294 591Q356 591 378 609Q417 642 417 722Q417 787 391 826Q361 872 313 872Q253 872 225 793Q213 758 210 713Z"  horiz-adv-x="654" vert-adv-y="2048"  />

      
      <glyph glyph-name="unie8" unicode="&#xe8;" d="M643 969L643 0L500 0L500 594Q505 690 508 745Q488 649 468 594L239 0L96 0L96 969L239 969L239 371Q239 366 237 316Q236 297 233 221Q247 308 270 371L500 969L643 969Z"  horiz-adv-x="739" vert-adv-y="2048"  />

      
      <glyph glyph-name="unie9" unicode="&#xe9;" d="M643 969L643 0L500 0L500 594Q505 690 508 745Q488 649 468 594L239 0L96 0L96 969L239 969L239 371Q239 366 237 316Q236 297 233 221Q247 308 270 371L500 969L643 969M480 1357L589 1357Q579 1254 532 1191Q473 1113 370 1113Q258 1113 198 1207Q160 1266 152 1357L261 1357Q283 1225 365 1225Q455 1225 480 1357Z"  horiz-adv-x="739" vert-adv-y="2048"  />

      
      <glyph glyph-name="uniea" unicode="&#xea;" d="M239 538L457 969L619 969L398 526L654 0L491 0L239 515L239 0L96 0L96 969L239 969L239 538Z"  horiz-adv-x="654" vert-adv-y="2048"  />

      
      <glyph glyph-name="unieb" unicode="&#xeb;" d="M0 0L221 969L378 969L597 0L451 0L325 566Q306 656 293 791Q288 648 270 566L146 0L0 0Z"  horiz-adv-x="597" vert-adv-y="2048"  />

      
      <glyph glyph-name="uniec" unicode="&#xec;" d="M41 0L111 969L282 969L443 338Q458 278 471 177Q485 274 502 338L674 969L844 969L896 0L744 0L720 588Q719 621 724 746Q698 610 689 577L532 0L408 0L261 562Q243 632 224 746Q227 638 229 562L197 0L41 0Z"  horiz-adv-x="937" vert-adv-y="2048"  />

      
      <glyph glyph-name="unied" unicode="&#xed;" d="M475 564L475 969L618 969L618 0L475 0L475 441L239 441L239 0L96 0L96 969L239 969L239 564L475 564Z"  horiz-adv-x="714" vert-adv-y="2048"  />

      
      <glyph glyph-name="uniee" unicode="&#xee;" d="M349 993Q409 993 463.50 966.50Q518 940 549 895Q641 763 641 484Q641 207 549 74Q518 29 463 2.50Q408-24 345-24Q281-24 226 2.50Q171 29 139 74Q48 207 48 481Q48 764 139 895Q208 993 349 993M342 872Q198 872 198 484Q198 97 345 97Q491 97 491 480Q491 674 455 778Q422 872 342 872Z"  horiz-adv-x="688" vert-adv-y="2048"  />

      
      <glyph glyph-name="unief" unicode="&#xef;" d="M96 969L618 969L618 0L475 0L475 846L239 846L239 0L96 0L96 969Z"  horiz-adv-x="714" vert-adv-y="2048"  />

      
      <glyph glyph-name="unif0" unicode="&#xf0;" d="M233 969L233 843Q261 906 292 935Q351 993 438 993Q559 993 622 887Q695 764 695 525Q695 232 619 89Q589 34 526 1Q480-24 427-24Q322-24 239 79L239-429L96-429L96 969L233 969M398 872Q365 872 333 846Q301 820 282 777Q235 672 235 486Q235 309 272 207Q289 158 323.50 127.50Q358 97 397 97Q545 97 545 497Q545 670 518 761Q502 813 470 842.50Q438 872 398 872Z"  horiz-adv-x="743" vert-adv-y="2048"  />

      
      <glyph glyph-name="unif1" unicode="&#xf1;" d="M585 699L435 699Q429 795 409 829Q384 872 333 872Q269 872 237 808Q198 730 198 484Q198 308 228 197Q256 98 331 98Q392 98 416 165Q429 200 435 283L585 283Q579-24 331-24Q193-24 132 63Q72 148 58 270Q48 363 48 466Q48 704 88 816Q151 993 333 993Q486 993 546 873Q578 809 585 699Z"  horiz-adv-x="612" vert-adv-y="2048"  />

      
      <glyph glyph-name="unif2" unicode="&#xf2;" d="M0 969L553 969L553 846L348 846L348 0L205 0L205 846L0 846L0 969Z"  horiz-adv-x="553" vert-adv-y="2048"  />

      
      <glyph glyph-name="unif3" unicode="&#xf3;" d="M598 969L260-429L114-429L214-11L0 969L143 969L270 373Q286 292 297 194Q312 354 317 370L459 969L598 969Z"  horiz-adv-x="598" vert-adv-y="2048"  />

      
      <glyph glyph-name="unif4" unicode="&#xf4;" d="M610 1463L610 867Q665 948 705 971Q743 993 783 993Q910 993 975 837Q1029 705 1029 499Q1029 208 937 71Q873-24 776-24Q718-24 677 5Q648 25 610 84L610-429L467-429L467 84Q441 43 422 24Q377-24 301-24Q193-24 126 94Q48 231 48 499Q48 705 102 837Q132 910 182.50 951.50Q233 993 291 993Q334 993 376 969Q415 945 467 867L467 1463L610 1463M747 872Q716 872 687.50 840.50Q659 809 644 757Q613 656 613 473Q613 319 636 229Q652 169 685 133Q718 97 758 97Q800 97 834 173Q879 273 879 487Q879 872 747 872M329 872Q277 872 239 786Q198 691 198 483Q198 271 240 176Q275 97 327 97Q395 97 430 202Q464 301 464 470Q464 696 415 799Q381 872 329 872Z"  horiz-adv-x="1077" vert-adv-y="2048"  />

      
      <glyph glyph-name="unif5" unicode="&#xf5;" d="M577 969L388 500L577 0L426 0L324 275Q303 333 289 401Q276 326 256 275L148 0L0 0L197 500L0 969L152 969L256 713Q271 674 289 580Q303 658 325 714L426 969L577 969Z"  horiz-adv-x="577" vert-adv-y="2048"  />

      
      <glyph glyph-name="unif6" unicode="&#xf6;" d="M603 969L603 123L690 123L690-150L547-150L547 0L96 0L96 969L239 969L239 123L460 123L460 969L603 969Z"  horiz-adv-x="703" vert-adv-y="2048"  />

      
      <glyph glyph-name="unif7" unicode="&#xf7;" d="M597 969L597 0L454 0L454 341Q454 378 458 408Q397 355 290 355Q154 355 112 443Q89 493 89 606L89 969L232 969L232 626Q232 531 254 503Q275 476 325 476Q454 476 454 668L454 969L597 969Z"  horiz-adv-x="693" vert-adv-y="2048"  />

      
      <glyph glyph-name="unif8" unicode="&#xf8;" d="M96 969L239 969L239 123L440 123L440 969L583 969L583 123L785 123L785 969L929 969L929 0L96 0L96 969Z"  horiz-adv-x="1024" vert-adv-y="2048"  />

      
      <glyph glyph-name="unif9" unicode="&#xf9;" d="M929 969L929 123L1016 123L1016-150L873-150L873 0L96 0L96 969L239 969L239 123L440 123L440 969L583 969L583 123L786 123L786 969L929 969Z"  horiz-adv-x="1029" vert-adv-y="2048"  />

      
      <glyph glyph-name="unifa" unicode="&#xfa;" d="M266 969L266 607L338 607Q462 607 523 565Q575 529 604 456Q633 385 633 296Q633 0 338 0L123 0L123 846L0 846L0 969L266 969M266 477L266 123L338 123Q413 123 448 165Q483 207 483 295Q483 406 435 450Q405 477 338 477L266 477Z"  horiz-adv-x="681" vert-adv-y="2048"  />

      
      <glyph glyph-name="unifb" unicode="&#xfb;" d="M239 969L239 601L312 601Q436 601 498 560Q607 487 607 296Q607 0 312 0L96 0L96 969L239 969M239 478L239 123L312 123Q457 123 457 292Q457 406 409 450Q380 478 312 478L239 478M807 969L807 0L664 0L664 969L807 969Z"  horiz-adv-x="902" vert-adv-y="2048"  />

      
      <glyph glyph-name="unifc" unicode="&#xfc;" d="M239 969L239 601L353 601Q460 601 514 558Q557 524 582 452Q607 381 607 293Q607 0 353 0L96 0L96 969L239 969M239 478L239 123L339 123Q400 123 428.50 164Q457 205 457 292Q457 406 419 450Q395 478 339 478L239 478Z"  horiz-adv-x="655" vert-adv-y="2048"  />

      
      <glyph glyph-name="unifd" unicode="&#xfd;" d="M163 693L27 693Q35 759 58 817Q128 993 288 993Q448 993 528 831Q594 696 594 485Q594 279 530 146Q448-24 288-24Q73-24 27 280L163 280Q191 98 285 98Q386 98 430 280Q444 340 449 436L215 436L215 559L449 559Q436 714 396 793Q356 872 291 872Q224 872 187 784Q171 747 163 693Z"  horiz-adv-x="643" vert-adv-y="2048"  />

      
      <glyph glyph-name="unife" unicode="&#xfe;" d="M358 570Q370 724 412 817Q490 993 652 993Q787 993 859 880Q949 739 949 485Q949 230 859 89Q787-24 653-24Q476-24 400 186Q363 289 358 440L239 440L239 0L96 0L96 969L239 969L239 570L358 570M650 872Q506 872 506 484Q506 97 653 97Q799 97 799 480Q799 675 763 778Q730 872 650 872Z"  horiz-adv-x="997" vert-adv-y="2048"  />

      
      <glyph glyph-name="unia4" unicode="&#xa4;" d="M133 888L48 973L112 1037L190 959Q270 1015 386 1015Q501 1015 581 959L659 1037L723 973L638 888Q682 799 682 680Q682 588 649 500L723 426L659 362L599 422Q525 350 386 350Q246 350 172 422L112 362L48 426L122 500Q89 587 89 680Q89 800 133 888M383 928Q226 928 226 682Q226 437 386 437Q545 437 545 681Q545 804 506 868Q469 928 383 928Z"  horiz-adv-x="770" vert-adv-y="2048"  />

      
      <glyph glyph-name="unia5" unicode="&#xa5;" d="M96 1366L390 1366L390 1556L527 1556L527 1231L253 1231L253 0L96 0L96 1366Z"  horiz-adv-x="540" vert-adv-y="2048"  />

      
      <glyph glyph-name="unia6" unicode="&#xa6;" d="M434 1365L589 1365L589 682L434 682L434 1365M434 314L589 314L589-341L434-341L434 314Z"  horiz-adv-x="1024" vert-adv-y="2048"  />

      
      <glyph glyph-name="uniad" unicode="&#xad;" d="M355 552L355 423L77 423L77 552L355 552Z"  horiz-adv-x="432" vert-adv-y="2048"  />

      
      <glyph glyph-name="unib4" unicode="&#xb4;" d="M96 969L380 969L380 1120L506 1120L506 846L239 846L239 0L96 0L96 969Z"  horiz-adv-x="515" vert-adv-y="2048"  />

      
      <glyph glyph-name="unib7" unicode="&#xb7;" d="M380 603L380 407L243 407L243 603L380 603Z"  horiz-adv-x="621" vert-adv-y="2048"  />

      
      <glyph glyph-name="uni037E" unicode="&#x037E;" d="M264 969L264 775L127 775L127 969L264 969M264 196L159-253L60-253L133 196L264 196Z"  horiz-adv-x="371" vert-adv-y="2048"  />

      
      <glyph glyph-name="uni0401" unicode="&#x0401;" d="M515 1365L515 1231L253 1231L253 767L515 767L515 633L253 633L253 134L532 134L532 0L96 0L96 1365L515 1365M232 1696L232 1523L95 1523L95 1696L232 1696M478 1696L478 1523L341 1523L341 1696L478 1696Z"  horiz-adv-x="573" vert-adv-y="2048"  />

      
      <glyph glyph-name="uni0402" unicode="&#x0402;" d="M14 1365L767 1365L767 1231L432 1231L432 802Q512 848 600 848Q755 848 822 689Q867 582 867 416Q867 190 815 28Q773-101 684-152Q612-193 486-192L486-62Q556-66 590-51Q653-23 678 104Q703 224 703 408Q703 557 663 637Q624 714 557 714Q494 714 467 654Q432 576 432 422L432 0L275 0L275 1231L14 1231L14 1365Z"  horiz-adv-x="914" vert-adv-y="2048"  />

      
      <glyph glyph-name="uni0403" unicode="&#x0403;" d="M530 1365L530 1231L253 1231L253 0L96 0L96 1365L530 1365M312 1753L452 1753L333 1457L214 1457L312 1753Z"  horiz-adv-x="544" vert-adv-y="2048"  />

      
      <glyph glyph-name="uni0404" unicode="&#x0404;" d="M548 766L548 632L213 632Q234 103 428 103Q519 103 569 210Q597 270 607 360L764 360Q750 204 678 104Q583-27 428-27Q272-27 181 106Q48 304 48 682Q48 1062 181 1258Q224 1321 288 1356.50Q352 1392 423 1392Q603 1392 702 1188Q762 1066 764 890L607 890Q601 1021 564 1126Q515 1262 420 1262Q300 1262 245 1042Q221 947 213 766L548 766Z"  horiz-adv-x="791" vert-adv-y="2048"  />

      
      <glyph glyph-name="uni0405" unicode="&#x0405;" d="M575 1043L425 1043Q424 1147 412 1192Q393 1262 340 1262Q291 1262 269 1217Q252 1181 252 1087Q252 962 283 894Q307 843 391 754Q495 646 528 582Q576 488 576 311Q576 129 518 56Q487 18 432.50-4.50Q378-27 315-27Q120-27 72 166Q57 226 55 368L205 368Q207 222 224 174Q249 103 310 103Q370 103 390 149Q412 198 412 306Q412 430 391 492Q370 551 303 622Q177 756 161 779Q117 843 101 911Q88 970 88 1053Q88 1392 331 1392Q485 1392 544 1252Q572 1186 575 1043Z"  horiz-adv-x="630" vert-adv-y="2048"  />

      
      <glyph glyph-name="uni0406" unicode="&#x0406;" d="M266 1365L266 0L109 0L109 1365L266 1365Z"  horiz-adv-x="375" vert-adv-y="2048"  />

      
      <glyph glyph-name="uni0407" unicode="&#x0407;" d="M266 1365L266 0L109 0L109 1365L266 1365M133 1696L133 1523L-4 1523L-4 1696L133 1696M379 1696L379 1523L242 1523L242 1696L379 1696Z"  horiz-adv-x="375" vert-adv-y="2048"  />

      
      <glyph glyph-name="uni0408" unicode="&#x0408;" d="M267 1365L267-63Q267-262 243-330Q225-380 181-404Q137-428 62-428Q17-428-7-425L-7-291Q30-293 39-293Q94-293 106-238Q110-221 110-83L110 1365L267 1365Z"  horiz-adv-x="377" vert-adv-y="2048"  />

      
      <glyph glyph-name="uni0409" unicode="&#x0409;" d="M-7 0L480 1365L652 1365L652 797L733 797Q883 797 947 718Q1031 612 1031 390Q1031 161 934 65Q868 0 719 0L494 0L494 756Q494 904 500 1096Q473 939 444 851L154 0L-7 0M652 667L652 134L733 134Q867 134 867 391Q867 544 824 620Q797 667 733 667L652 667Z"  horiz-adv-x="1079" vert-adv-y="2048"  />

      
      <glyph glyph-name="uni040A" unicode="&#x040A;" d="M96 1365L253 1365L253 768L587 768L587 1365L744 1365L744 768L821 768Q941 768 1003 723Q1123 636 1123 385Q1123 123 989 38Q928 0 821 0L587 0L587 634L253 634L253 0L96 0L96 1365M744 634L744 134L821 134Q891 134 925 196Q959 258 959 386Q959 535 912 597Q883 634 821 634L744 634Z"  horiz-adv-x="1171" vert-adv-y="2048"  />

      
      <glyph glyph-name="uni040B" unicode="&#x040B;" d="M392 783Q472 847 572 847Q711 847 775 742Q809 686 809 518L809 0L652 0L652 518Q652 622 633 660Q606 712 540 712Q471 712 421 642Q392 602 392 534L392 0L235 0L235 1231L14 1231L14 1365L739 1365L739 1231L392 1231L392 783Z"  horiz-adv-x="897" vert-adv-y="2048"  />

      
      <glyph glyph-name="uni040C" unicode="&#x040C;" d="M253 744L505 1365L671 1365L387 715L697 0L530 0L253 679L253 0L96 0L96 1365L253 1365L253 744M382 1753L522 1753L403 1457L284 1457L382 1753Z"  horiz-adv-x="710" vert-adv-y="2048"  />

      
      <glyph glyph-name="uni040E" unicode="&#x040E;" d="M690 1365L443 324Q402 152 328 74Q246-11 104-11Q65-11 23 4L23 153Q63 128 93 128Q144 128 181 155Q218 182 243 239L-27 1365L136 1365L293 638Q317 533 330 462Q343 532 366 638L517 1365L690 1365M444 1726L556 1726Q549 1627 498 1560Q438 1482 331 1482Q215 1482 154 1576Q112 1638 106 1726L219 1726Q242 1594 326 1594Q418 1594 444 1726Z"  horiz-adv-x="662" vert-adv-y="2048"  />

      
      <glyph glyph-name="uni040F" unicode="&#x040F;" d="M96 1365L253 1365L253 134L566 134L566 1365L723 1365L723 0L488 0L488-191L331-191L331 0L96 0L96 1365Z"  horiz-adv-x="828" vert-adv-y="2048"  />

      
      <glyph glyph-name="uni0410" unicode="&#x0410;" d="M421 1374L713 0L563 0L469 445L239 445L143 0L0 0L294 1374L421 1374M441 575L378 895Q360 990 353 1104Q348 1050 347 1033Q340 951 329 895L266 575L441 575Z"  horiz-adv-x="713" vert-adv-y="2048"  />

      
      <glyph glyph-name="uni0411" unicode="&#x0411;" d="M96 1365L518 1365L518 1231L253 1231L253 796L334 796Q433 796 486 745Q596 641 596 384Q596 135 472 38Q423 0 327 0L96 0L96 1365M253 659L253 134L323 134Q372 134 394 174Q432 242 432 385Q432 552 393 617Q368 659 319 659L253 659Z"  horiz-adv-x="643" vert-adv-y="2048"  />

      
      <glyph glyph-name="uni0412" unicode="&#x0412;" d="M96 1365L320 1365Q596 1365 596 1035Q596 789 455 720Q523 692 557 649Q634 554 634 378Q634 228 581 131Q530 38 438 12Q395 0 333 0L96 0L96 1365M253 777L307 777Q432 777 432 1004Q432 1165 388 1209Q362 1235 306 1235L253 1235L253 777M253 130L309 130Q380 130 416 169Q470 229 470 382Q470 642 309 642L253 642L253 130Z"  horiz-adv-x="675" vert-adv-y="2048"  />

      
      <glyph glyph-name="uni0413" unicode="&#x0413;" d="M530 1365L530 1231L253 1231L253 0L96 0L96 1365L530 1365Z"  horiz-adv-x="544" vert-adv-y="2048"  />

      
      <glyph glyph-name="uni0414" unicode="&#x0414;" d="M0-191L0 134L72 134L302 1365L483 1365L717 134L789 134L789-191L632-191L632 0L157 0L157-191L0-191M228 134L560 134L432 884Q425 925 396 1120L392 1149Q374 1008 354 886L228 134Z"  horiz-adv-x="789" vert-adv-y="2048"  />

      
      <glyph glyph-name="uni0415" unicode="&#x0415;" d="M515 1365L515 1231L253 1231L253 767L515 767L515 633L253 633L253 134L532 134L532 0L96 0L96 1365L515 1365Z"  horiz-adv-x="546" vert-adv-y="2048"  />

      
      <glyph glyph-name="uni0416" unicode="&#x0416;" d="M839 1365L1004 1365L709 721L1030 0L864 0L587 679L587 0L444 0L444 679L167 0L0 0L322 721L26 1365L192 1365L444 744L444 1365L587 1365L587 744L839 1365Z"  horiz-adv-x="1031" vert-adv-y="2048"  />

      
      <glyph glyph-name="uni0417" unicode="&#x0417;" d="M259 633L259 767L337 767Q387 767 408 777Q485 815 485 1012Q485 1163 444 1223Q419 1258 363 1258Q283 1258 262 1191Q252 1160 247 1072L103 1072Q107 1153 114 1198Q132 1301 211 1350Q279 1392 382 1392Q503 1392 567 1327Q649 1243 649 1047Q649 900 593 807Q553 741 476 700Q553 684 595 642Q643 595 657 532Q673 465 673 377Q673 131 585 40Q520-27 358-27Q255-27 203 5Q118 58 101 176Q95 218 92 289L235 289Q244 176 268 142Q297 100 361 100Q432 100 463 144Q497 192 503 259Q509 313 509 375Q509 491 487 542Q448 633 343 633L259 633Z"  horiz-adv-x="765" vert-adv-y="2048"  />

      
      <glyph glyph-name="uni0418" unicode="&#x0418;" d="M96 1365L253 1365L253 443Q252 376 246 321Q256 363 263 402Q268 429 276 456L573 1365L744 1365L744 0L587 0L587 876Q590 968 594 1045Q583 998 578 978Q561 904 552 876L260 0L96 0L96 1365Z"  horiz-adv-x="839" vert-adv-y="2048"  />

      
      <glyph glyph-name="uni0419" unicode="&#x0419;" d="M96 1365L253 1365L253 443Q252 376 246 321Q256 363 263 402Q268 429 276 456L573 1365L744 1365L744 0L587 0L587 876Q590 968 594 1045Q583 998 578 978Q561 904 552 876L260 0L96 0L96 1365M533 1726L645 1726Q638 1627 587 1560Q527 1482 420 1482Q304 1482 243 1576Q201 1638 195 1726L308 1726Q331 1594 415 1594Q507 1594 533 1726Z"  horiz-adv-x="839" vert-adv-y="2048"  />

      
      <glyph glyph-name="uni041A" unicode="&#x041A;" d="M253 744L505 1365L671 1365L387 715L697 0L530 0L253 679L253 0L96 0L96 1365L253 1365L253 744Z"  horiz-adv-x="710" vert-adv-y="2048"  />

      
      <glyph glyph-name="uni041B" unicode="&#x041B;" d="M713 0L560 0L387 870Q372 949 362 1109Q351 948 336 870L165 0L0 0L286 1365L427 1365L713 0Z"  horiz-adv-x="713" vert-adv-y="2048"  />

      
      <glyph glyph-name="uni041C" unicode="&#x041C;" d="M931 1365L1000 0L843 0L815 734L809 837Q809 879 810 917Q811 956 811 1035Q789 877 756 734L610 0L446 0L287 764Q278 806 269 867Q256 960 244 1035Q246 934 246 888Q246 841 240 764L212 0L55 0L123 1365L303 1365L494 479Q508 414 513 365Q522 286 528 231Q542 392 563 479L753 1365L931 1365Z"  horiz-adv-x="1054" vert-adv-y="2048"  />

      
      <glyph glyph-name="uni041D" unicode="&#x041D;" d="M253 1365L253 766L580 766L580 1365L737 1365L737 0L580 0L580 632L253 632L253 0L96 0L96 1365L253 1365Z"  horiz-adv-x="832" vert-adv-y="2048"  />

      
      <glyph glyph-name="uni041E" unicode="&#x041E;" d="M430 1392Q500 1392 565.50 1359Q631 1326 669 1272Q803 1086 803 682Q803 281 669 93Q630 38 564.50 5.50Q499-27 426-27Q352-27 286 5.50Q220 38 181 93Q48 281 48 677Q48 1086 181 1272Q222 1328 288 1360Q354 1392 430 1392M422 1262Q330 1262 279 1143Q212 987 212 682Q212 379 279 222Q329 103 426 103Q522 103 572 222Q639 379 639 675Q639 1262 422 1262Z"  horiz-adv-x="850" vert-adv-y="2048"  />

      
      <glyph glyph-name="uni041F" unicode="&#x041F;" d="M710 1365L710 0L553 0L553 1231L253 1231L253 0L96 0L96 1365L710 1365Z"  horiz-adv-x="806" vert-adv-y="2048"  />

      
      <glyph glyph-name="uni0420" unicode="&#x0420;" d="M253 533L253 0L96 0L96 1365L320 1365Q441 1365 510 1299Q562 1250 585.50 1165Q609 1080 609 943Q609 750 556 660Q507 578 427 548Q387 533 320 533L253 533M253 670L302 670Q378 670 406 713Q445 773 445 941Q445 1144 385 1204Q358 1231 302 1231L253 1231L253 670Z"  horiz-adv-x="642" vert-adv-y="2048"  />

      
      <glyph glyph-name="uni0421" unicode="&#x0421;" d="M743 1034L593 1034Q586 1142 559 1193Q521 1262 438 1262Q302 1262 255 1074Q212 907 212 635Q212 355 266 228Q291 170 335.50 136.50Q380 103 432 103Q576 103 593 371L743 371Q730-27 419-27Q236-27 151 108Q98 190 73 324.50Q48 459 48 657Q48 909 80 1048Q121 1223 207.50 1307.50Q294 1392 431 1392Q627 1392 704 1228Q741 1148 743 1034Z"  horiz-adv-x="784" vert-adv-y="2048"  />

      
      <glyph glyph-name="uni0422" unicode="&#x0422;" d="M658 1365L658 1231L432 1231L432 0L275 0L275 1231L14 1231L14 1365L658 1365Z"  horiz-adv-x="671" vert-adv-y="2048"  />

      
      <glyph glyph-name="uni0423" unicode="&#x0423;" d="M690 1365L443 324Q402 152 328 74Q246-11 104-11Q65-11 23 4L23 153Q63 128 93 128Q144 128 181 155Q218 182 243 239L-27 1365L136 1365L293 638Q317 533 330 462Q343 532 366 638L517 1365L690 1365Z"  horiz-adv-x="662" vert-adv-y="2048"  />

      
      <glyph glyph-name="uni0424" unicode="&#x0424;" d="M420 1577L577 1577L577 1294Q675 1286 754 1223Q860 1140 908 977Q948 842 948 685Q948 457 864 284Q772 92 577 68L577-259L420-259L420 68Q332 73 259 127Q145 212 89 386Q48 514 48 671Q48 905 138 1079Q240 1277 420 1294L420 1577M420 1164Q353 1149 298 1060Q212 919 212 677Q212 431 298 291Q335 231 377 210Q392 202 420 197L420 1164M577 200Q624 209 656.50 237.50Q689 266 719 324Q784 452 784 686Q784 952 705 1071Q651 1153 577 1163L577 200Z"  horiz-adv-x="995" vert-adv-y="2048"  />

      
      <glyph glyph-name="uni0425" unicode="&#x0425;" d="M640 1365L412 703L640 0L483 0L357 365Q336 427 320 542Q306 447 279 365L157 0L0 0L228 703L0 1365L157 1365L279 1035Q296 987 320 865Q336 978 357 1035L483 1365L640 1365Z"  horiz-adv-x="640" vert-adv-y="2048"  />

      
      <glyph glyph-name="uni0426" unicode="&#x0426;" d="M713 1365L713 134L801 134L801-191L644-191L644 0L96 0L96 1365L253 1365L253 134L556 134L556 1365L713 1365Z"  horiz-adv-x="814" vert-adv-y="2048"  />

      
      <glyph glyph-name="uni0427" unicode="&#x0427;" d="M560 0L560 595Q451 527 337 527Q181 527 123 642Q89 708 89 897L89 1368L246 1368L246 897Q246 772 270 726Q303 662 387 662Q456 662 505 703Q560 748 560 848L560 1368L717 1368L717 0L560 0Z"  horiz-adv-x="813" vert-adv-y="2048"  />

      
      <glyph glyph-name="uni0428" unicode="&#x0428;" d="M1054 1365L1054 0L96 0L96 1365L253 1365L253 134L497 134L497 1365L654 1365L654 134L897 134L897 1365L1054 1365Z"  horiz-adv-x="1150" vert-adv-y="2048"  />

      
      <glyph glyph-name="uni0429" unicode="&#x0429;" d="M1054 1365L1054 134L1141 134L1141-191L984-191L984 0L96 0L96 1365L253 1365L253 134L496 134L496 1365L653 1365L653 134L897 134L897 1365L1054 1365Z"  horiz-adv-x="1154" vert-adv-y="2048"  />

      
      <glyph glyph-name="uni042A" unicode="&#x042A;" d="M335 1365L335 797L412 797Q532 797 594 748Q714 651 714 382Q714 121 581 38Q519 0 412 0L178 0L178 1231L14 1231L14 1365L335 1365M335 660L335 134L412 134Q475 134 502 173Q550 241 550 387Q550 547 503 618Q475 660 412 660L335 660Z"  horiz-adv-x="761" vert-adv-y="2048"  />

      
      <glyph glyph-name="uni042B" unicode="&#x042B;" d="M253 1365L253 797L330 797Q449 797 512 746Q633 647 633 388Q633 125 498 38Q439 0 330 0L96 0L96 1365L253 1365M253 660L253 134L330 134Q400 134 434.50 196.50Q469 259 469 387Q469 551 421 621Q395 660 330 660L253 660M860 1365L860 0L703 0L703 1365L860 1365Z"  horiz-adv-x="955" vert-adv-y="2048"  />

      
      <glyph glyph-name="uni042C" unicode="&#x042C;" d="M253 1365L253 796L329 796Q450 796 512 747Q632 653 632 386Q632 122 499 38Q437 0 329 0L96 0L96 1365L253 1365M253 134L329 134Q393 134 420 174Q468 244 468 389Q468 578 406 638Q384 659 329 659L253 659L253 134Z"  horiz-adv-x="680" vert-adv-y="2048"  />

      
      <glyph glyph-name="uni042D" unicode="&#x042D;" d="M257 766L591 766Q583 970 551 1076Q494 1262 385 1262Q282 1262 232 1098Q203 1003 198 890L41 890Q43 1086 119 1219Q217 1392 381 1392Q453 1392 517 1356.50Q581 1321 623 1258Q757 1062 757 682Q757 304 623 106Q533-27 377-27Q208-27 112 127Q53 220 41 360L198 360Q209 259 244 194Q293 103 377 103Q571 103 591 632L257 632L257 766Z"  horiz-adv-x="804" vert-adv-y="2048"  />

      
      <glyph glyph-name="uni042E" unicode="&#x042E;" d="M253 770L383 770Q397 1025 465 1171Q567 1392 759 1392Q913 1392 1003 1258Q1137 1061 1137 683Q1137 304 1004 106Q914-27 760-27Q547-27 446 241Q392 387 383 636L253 636L253 0L96 0L96 1365L253 1365L253 770M756 1262Q664 1262 613 1143Q546 987 546 682Q546 378 613 222Q664 103 760 103Q856 103 906 222Q973 380 973 675Q973 1262 756 1262Z"  horiz-adv-x="1184" vert-adv-y="2048"  />

      
      <glyph glyph-name="uni042F" unicode="&#x042F;" d="M445 0L445 631L396 631Q351 630 322 591Q297 555 276 474Q268 443 238 294L195 105Q179 46 159 0L0 0Q53 136 66 211L100 381Q126 509 140 546Q172 630 210 659Q226 671 260 681Q194 703 162 744Q98 825 98 1011Q98 1182 140 1257Q190 1346 292 1360Q330 1365 396 1365L602 1365L602 0L445 0M445 1235L396 1235Q331 1235 303 1207Q262 1167 262 1029Q262 898 283 847Q316 762 396 762L445 762L445 1235Z"  horiz-adv-x="698" vert-adv-y="2048"  />

      
      <glyph glyph-name="uni0430" unicode="&#x0430;" d="M575 0L447 0Q437 32 423 94Q352-24 244-24Q153-24 104 47Q48 130 48 258Q48 371 92 452Q158 577 340 577Q357 577 393 575L393 637Q393 734 387 771Q371 872 291 872Q232 872 208 810Q195 774 191 695L60 695Q61 827 100 891Q164 993 294 993Q447 993 504 885Q536 825 536 675L536 330Q536 165 555 77Q561 53 575 0M393 479Q310 479 274 458Q198 412 198 258Q198 98 279 98Q393 98 393 378L393 479Z"  horiz-adv-x="637" vert-adv-y="2048"  />

      
      <glyph glyph-name="uni0431" unicode="&#x0431;" d="M604 1453L604 1322Q547 1305 474 1296Q368 1283 329 1255Q278 1221 256 1163Q204 1031 198 906Q232 947 260 964Q307 993 370 993Q488 993 551 883Q635 735 635 494Q635 273 562 125Q489-24 338-24Q176-24 108 152Q76 234 62 344.50Q48 455 48 628Q48 1015 137 1209Q194 1334 284 1379Q328 1401 445 1419Q564 1438 604 1453M344 872Q313 872 284 841.50Q255 811 237 759Q198 647 198 486Q198 329 235 211Q251 159 280 128Q309 97 341 97Q391 97 430 169Q454 216 471 331Q485 429 485 492Q485 626 453 750Q438 807 409 839.50Q380 872 344 872Z"  horiz-adv-x="682" vert-adv-y="2048"  />

      
      <glyph glyph-name="uni0432" unicode="&#x0432;" d="M96 969L279 969Q419 969 481 927Q577 864 577 721Q577 572 449 509Q523 484 556 442Q605 378 605 271Q605 90 467 24Q417 0 279 0L96 0L96 969M239 591L279 591Q362 591 392 618Q427 649 427 710Q427 787 388 820Q356 846 279 846L239 846L239 591M239 468L239 123L279 123Q455 123 455 282Q455 396 393 441Q356 468 279 468L239 468Z"  horiz-adv-x="653" vert-adv-y="2048"  />

      
      <glyph glyph-name="uni0433" unicode="&#x0433;" d="M96 969L509 969L509 846L239 846L239 0L96 0L96 969Z"  horiz-adv-x="522" vert-adv-y="2048"  />

      
      <glyph glyph-name="uni0434" unicode="&#x0434;" d="M63 123L256 969L413 969L604 123L667 123L667-150L524-150L524 0L143 0L143-150L0-150L0 123L63 123M208 123L460 123L360 567Q348 626 335 791Q330 661 310 567L208 123Z"  horiz-adv-x="667" vert-adv-y="2048"  />

      
      <glyph glyph-name="uni0435" unicode="&#x0435;" d="M639 467L196 467Q201 284 227 205Q263 97 342 97Q423 97 454 171Q468 206 477 270L618 270Q607 193 582 135Q513-24 355-24Q186-24 118 107Q48 244 48 476Q48 746 148 892Q218 993 346 993Q539 993 607 778Q638 680 639 467M489 590Q477 872 349 872Q214 872 198 590L489 590Z"  horiz-adv-x="687" vert-adv-y="2048"  />

      
      <glyph glyph-name="uni0436" unicode="&#x0436;" d="M548 969L548 538L766 969L928 969L707 526L963 0L800 0L548 515L548 0L415 0L415 515L163 0L0 0L255 526L35 969L197 969L415 538L415 969L548 969Z"  horiz-adv-x="963" vert-adv-y="2048"  />

      
      <glyph glyph-name="uni0437" unicode="&#x0437;" d="M210 713L69 713Q82 807 101 855Q129 924 200 961Q260 993 330 993Q448 993 511 918Q567 852 567 745Q567 641 513 586Q489 562 433 538Q500 514 531 475Q585 406 585 280Q585 203 561.50 136.50Q538 70 497 34Q432-24 313-24Q163-24 103 76Q65 139 55 254L191 254Q195 199 203 172Q224 98 303 98Q368 98 404 151Q435 198 435 278Q435 376 397 430Q378 457 347 464Q328 468 294 468L215 468L215 591L294 591Q356 591 378 609Q417 642 417 722Q417 787 391 826Q361 872 313 872Q253 872 225 793Q213 758 210 713Z"  horiz-adv-x="654" vert-adv-y="2048"  />

      
      <glyph glyph-name="uni0438" unicode="&#x0438;" d="M643 969L643 0L500 0L500 594Q505 690 508 745Q488 649 468 594L239 0L96 0L96 969L239 969L239 371Q239 366 237 316Q236 297 233 221Q247 308 270 371L500 969L643 969Z"  horiz-adv-x="739" vert-adv-y="2048"  />

      
      <glyph glyph-name="uni0439" unicode="&#x0439;" d="M643 969L643 0L500 0L500 594Q505 690 508 745Q488 649 468 594L239 0L96 0L96 969L239 969L239 371Q239 366 237 316Q236 297 233 221Q247 308 270 371L500 969L643 969M480 1357L589 1357Q579 1254 532 1191Q473 1113 370 1113Q258 1113 198 1207Q160 1266 152 1357L261 1357Q283 1225 365 1225Q455 1225 480 1357Z"  horiz-adv-x="739" vert-adv-y="2048"  />

      
      <glyph glyph-name="uni043A" unicode="&#x043A;" d="M239 538L457 969L619 969L398 526L654 0L491 0L239 515L239 0L96 0L96 969L239 969L239 538Z"  horiz-adv-x="654" vert-adv-y="2048"  />

      
      <glyph glyph-name="uni043B" unicode="&#x043B;" d="M0 0L221 969L378 969L597 0L451 0L325 566Q306 656 293 791Q288 648 270 566L146 0L0 0Z"  horiz-adv-x="597" vert-adv-y="2048"  />

      
      <glyph glyph-name="uni043C" unicode="&#x043C;" d="M41 0L111 969L282 969L443 338Q458 278 471 177Q485 274 502 338L674 969L844 969L896 0L744 0L720 588Q719 621 724 746Q698 610 689 577L532 0L408 0L261 562Q243 632 224 746Q227 638 229 562L197 0L41 0Z"  horiz-adv-x="937" vert-adv-y="2048"  />

      
      <glyph glyph-name="uni043D" unicode="&#x043D;" d="M475 564L475 969L618 969L618 0L475 0L475 441L239 441L239 0L96 0L96 969L239 969L239 564L475 564Z"  horiz-adv-x="714" vert-adv-y="2048"  />

      
      <glyph glyph-name="uni043E" unicode="&#x043E;" d="M349 993Q409 993 463.50 966.50Q518 940 549 895Q641 763 641 484Q641 207 549 74Q518 29 463 2.50Q408-24 345-24Q281-24 226 2.50Q171 29 139 74Q48 207 48 481Q48 764 139 895Q208 993 349 993M342 872Q198 872 198 484Q198 97 345 97Q491 97 491 480Q491 674 455 778Q422 872 342 872Z"  horiz-adv-x="688" vert-adv-y="2048"  />

      
      <glyph glyph-name="uni043F" unicode="&#x043F;" d="M96 969L618 969L618 0L475 0L475 846L239 846L239 0L96 0L96 969Z"  horiz-adv-x="714" vert-adv-y="2048"  />

      
      <glyph glyph-name="uni0440" unicode="&#x0440;" d="M233 969L233 843Q261 906 292 935Q351 993 438 993Q559 993 622 887Q695 764 695 525Q695 232 619 89Q589 34 526 1Q480-24 427-24Q322-24 239 79L239-429L96-429L96 969L233 969M398 872Q365 872 333 846Q301 820 282 777Q235 672 235 486Q235 309 272 207Q289 158 323.50 127.50Q358 97 397 97Q545 97 545 497Q545 670 518 761Q502 813 470 842.50Q438 872 398 872Z"  horiz-adv-x="743" vert-adv-y="2048"  />

      
      <glyph glyph-name="uni0441" unicode="&#x0441;" d="M585 699L435 699Q429 795 409 829Q384 872 333 872Q269 872 237 808Q198 730 198 484Q198 308 228 197Q256 98 331 98Q392 98 416 165Q429 200 435 283L585 283Q579-24 331-24Q193-24 132 63Q72 148 58 270Q48 363 48 466Q48 704 88 816Q151 993 333 993Q486 993 546 873Q578 809 585 699Z"  horiz-adv-x="612" vert-adv-y="2048"  />

      
      <glyph glyph-name="uni0442" unicode="&#x0442;" d="M0 969L553 969L553 846L348 846L348 0L205 0L205 846L0 846L0 969Z"  horiz-adv-x="553" vert-adv-y="2048"  />

      
      <glyph glyph-name="uni0443" unicode="&#x0443;" d="M598 969L260-429L114-429L214-11L0 969L143 969L270 373Q286 292 297 194Q312 354 317 370L459 969L598 969Z"  horiz-adv-x="598" vert-adv-y="2048"  />

      
      <glyph glyph-name="uni0444" unicode="&#x0444;" d="M610 1463L610 867Q665 948 705 971Q743 993 783 993Q910 993 975 837Q1029 705 1029 499Q1029 208 937 71Q873-24 776-24Q718-24 677 5Q648 25 610 84L610-429L467-429L467 84Q441 43 422 24Q377-24 301-24Q193-24 126 94Q48 231 48 499Q48 705 102 837Q132 910 182.50 951.50Q233 993 291 993Q334 993 376 969Q415 945 467 867L467 1463L610 1463M747 872Q716 872 687.50 840.50Q659 809 644 757Q613 656 613 473Q613 319 636 229Q652 169 685 133Q718 97 758 97Q800 97 834 173Q879 273 879 487Q879 872 747 872M329 872Q277 872 239 786Q198 691 198 483Q198 271 240 176Q275 97 327 97Q395 97 430 202Q464 301 464 470Q464 696 415 799Q381 872 329 872Z"  horiz-adv-x="1077" vert-adv-y="2048"  />

      
      <glyph glyph-name="uni0445" unicode="&#x0445;" d="M577 969L388 500L577 0L426 0L324 275Q303 333 289 401Q276 326 256 275L148 0L0 0L197 500L0 969L152 969L256 713Q271 674 289 580Q303 658 325 714L426 969L577 969Z"  horiz-adv-x="577" vert-adv-y="2048"  />

      
      <glyph glyph-name="uni0446" unicode="&#x0446;" d="M603 969L603 123L690 123L690-150L547-150L547 0L96 0L96 969L239 969L239 123L460 123L460 969L603 969Z"  horiz-adv-x="703" vert-adv-y="2048"  />

      
      <glyph glyph-name="uni0447" unicode="&#x0447;" d="M597 969L597 0L454 0L454 341Q454 378 458 408Q397 355 290 355Q154 355 112 443Q89 493 89 606L89 969L232 969L232 626Q232 531 254 503Q275 476 325 476Q454 476 454 668L454 969L597 969Z"  horiz-adv-x="693" vert-adv-y="2048"  />

      
      <glyph glyph-name="uni0448" unicode="&#x0448;" d="M96 969L239 969L239 123L440 123L440 969L583 969L583 123L785 123L785 969L929 969L929 0L96 0L96 969Z"  horiz-adv-x="1024" vert-adv-y="2048"  />

      
      <glyph glyph-name="uni0449" unicode="&#x0449;" d="M929 969L929 123L1016 123L1016-150L873-150L873 0L96 0L96 969L239 969L239 123L440 123L440 969L583 969L583 123L786 123L786 969L929 969Z"  horiz-adv-x="1029" vert-adv-y="2048"  />

      
      <glyph glyph-name="uni044A" unicode="&#x044A;" d="M266 969L266 607L338 607Q462 607 523 565Q575 529 604 456Q633 385 633 296Q633 0 338 0L123 0L123 846L0 846L0 969L266 969M266 477L266 123L338 123Q413 123 448 165Q483 207 483 295Q483 406 435 450Q405 477 338 477L266 477Z"  horiz-adv-x="681" vert-adv-y="2048"  />

      
      <glyph glyph-name="uni044B" unicode="&#x044B;" d="M239 969L239 601L312 601Q436 601 498 560Q607 487 607 296Q607 0 312 0L96 0L96 969L239 969M239 478L239 123L312 123Q457 123 457 292Q457 406 409 450Q380 478 312 478L239 478M807 969L807 0L664 0L664 969L807 969Z"  horiz-adv-x="902" vert-adv-y="2048"  />

      
      <glyph glyph-name="uni044C" unicode="&#x044C;" d="M239 969L239 601L353 601Q460 601 514 558Q557 524 582 452Q607 381 607 293Q607 0 353 0L96 0L96 969L239 969M239 478L239 123L339 123Q400 123 428.50 164Q457 205 457 292Q457 406 419 450Q395 478 339 478L239 478Z"  horiz-adv-x="655" vert-adv-y="2048"  />

      
      <glyph glyph-name="uni044D" unicode="&#x044D;" d="M163 693L27 693Q35 759 58 817Q128 993 288 993Q448 993 528 831Q594 696 594 485Q594 279 530 146Q448-24 288-24Q73-24 27 280L163 280Q191 98 285 98Q386 98 430 280Q444 340 449 436L215 436L215 559L449 559Q436 714 396 793Q356 872 291 872Q224 872 187 784Q171 747 163 693Z"  horiz-adv-x="643" vert-adv-y="2048"  />

      
      <glyph glyph-name="uni044E" unicode="&#x044E;" d="M358 570Q370 724 412 817Q490 993 652 993Q787 993 859 880Q949 739 949 485Q949 230 859 89Q787-24 653-24Q476-24 400 186Q363 289 358 440L239 440L239 0L96 0L96 969L239 969L239 570L358 570M650 872Q506 872 506 484Q506 97 653 97Q799 97 799 480Q799 675 763 778Q730 872 650 872Z"  horiz-adv-x="997" vert-adv-y="2048"  />

      
      <glyph glyph-name="uni044F" unicode="&#x044F;" d="M539 969L539 0L396 0L396 432L363 432Q320 432 299 413Q247 359 198 175Q167 61 143 0L1 0Q28 74 49 143L76 249Q101 356 148 422Q179 462 244 486Q184 497 148 536Q88 599 88 722Q88 969 310 969L539 969M396 853L325 853Q238 853 238 704Q238 605 277 566Q294 549 347 549L396 549L396 853Z"  horiz-adv-x="634" vert-adv-y="2048"  />

      
      <glyph glyph-name="uni0451" unicode="&#x0451;" d="M639 467L196 467Q201 284 227 205Q263 97 342 97Q423 97 454 171Q468 206 477 270L618 270Q607 193 582 135Q513-24 355-24Q186-24 118 107Q48 244 48 476Q48 746 148 892Q218 993 346 993Q539 993 607 778Q638 680 639 467M489 590Q477 872 349 872Q214 872 198 590L489 590M299 1324L299 1144L177 1144L177 1324L299 1324M511 1324L511 1144L389 1144L389 1324L511 1324Z"  horiz-adv-x="687" vert-adv-y="2048"  />

      
      <glyph glyph-name="uni0452" unicode="&#x0452;" d="M127 1463L270 1463L270 1202L488 1202L488 1105L270 1105L270 897Q322 957 367 975Q412 993 458 993Q595 993 661 833Q715 700 715 482Q715 120 605-41Q548-124 458-140Q425-146 376-146L376-11Q473-13 505 56Q565 187 565 480Q565 871 418 871Q344 871 305 787Q270 710 270 605L270 0L127 0L127 1105L27 1105L27 1202L127 1202L127 1463Z"  horiz-adv-x="764" vert-adv-y="2048"  />

      
      <glyph glyph-name="uni0453" unicode="&#x0453;" d="M96 969L509 969L509 846L239 846L239 0L96 0L96 969M243 1365L356 1365L268 1115L167 1115L243 1365Z"  horiz-adv-x="522" vert-adv-y="2048"  />

      
      <glyph glyph-name="uni0454" unicode="&#x0454;" d="M615 693L479 693Q471 747 455 784Q418 872 351 872Q286 872 246 794Q206 716 193 564L427 564L427 441L193 441Q198 334 217 265Q262 98 358 98Q451 98 479 280L615 280Q568-24 354-24Q194-24 112 146Q48 279 48 486Q48 696 114 831Q194 993 354 993Q514 993 584 817Q606 761 615 693Z"  horiz-adv-x="643" vert-adv-y="2048"  />

      
      <glyph glyph-name="uni0455" unicode="&#x0455;" d="M493 696L356 696Q351 786 340 821Q323 872 281 872Q209 872 209 749Q209 669 245 619Q269 587 348 519Q410 466 438 430Q500 351 500 232Q500 116 448 52Q386-24 278-24Q186-24 120 34Q41 103 43 280L181 280Q182 212 188 183Q205 98 272 98Q358 98 358 218Q358 309 321 362Q298 395 223 455Q124 535 92 605Q66 662 66 733Q66 845 119 921Q171 993 283 993Q431 993 472 867Q488 818 493 696Z"  horiz-adv-x="539" vert-adv-y="2048"  />

      
      <glyph glyph-name="uni0456" unicode="&#x0456;" d="M96 1142L96 1324L239 1324L239 1142L96 1142M239 969L239 0L96 0L96 969L239 969Z"  horiz-adv-x="335" vert-adv-y="2048"  />

      
      <glyph glyph-name="uni0457" unicode="&#x0457;" d="M239 969L239 0L96 0L96 969L239 969M123 1324L123 1144L1 1144L1 1324L123 1324M335 1324L335 1144L213 1144L213 1324L335 1324Z"  horiz-adv-x="335" vert-adv-y="2048"  />

      
      <glyph glyph-name="uni0458" unicode="&#x0458;" d="M247 1324L247 1142L104 1142L104 1324L247 1324M247 969L247-76Q247-201 240-255Q227-361 155-403Q115-427 37-427Q25-427 0-427L0-313Q57-316 81-283Q100-253 103-178Q104-157 104-76L104 969L247 969Z"  horiz-adv-x="343" vert-adv-y="2048"  />

      
      <glyph glyph-name="uni0459" unicode="&#x0459;" d="M0 0L371 969L541 969L541 602L614 602Q730 602 782 554Q866 476 866 294Q866 97 760 30Q713 0 583 0L398 0L398 595Q398 664 403 772Q377 645 352 575L142 0L0 0M541 478L541 123L588 123Q637 123 651 128Q684 139 701 194Q716 242 716 295Q716 478 613 478L541 478Z"  horiz-adv-x="914" vert-adv-y="2048"  />

      
      <glyph glyph-name="uni045A" unicode="&#x045A;" d="M96 969L239 969L239 564L489 564L489 969L632 969L632 578L704 578Q810 578 866 539Q959 475 959 291Q959 0 704 0L489 0L489 441L239 441L239 0L96 0L96 969M632 455L632 123L704 123Q755 123 779 156Q809 197 809 289Q809 387 775 430Q756 455 704 455L632 455Z"  horiz-adv-x="1006" vert-adv-y="2048"  />

      
      <glyph glyph-name="uni045B" unicode="&#x045B;" d="M100 1202L100 1464L243 1464L243 1202L442 1202L442 1105L243 1105L243 881Q280 927 304 946Q362 993 432 993Q487 993 529.50 963Q572 933 593 881Q619 816 619 634L619 0L476 0L476 634Q476 762 459 806Q434 871 378 871Q334 871 301 830Q268 789 253 716Q243 667 243 574L243 0L100 0L100 1105L0 1105L0 1202L100 1202Z"  horiz-adv-x="708" vert-adv-y="2048"  />

      
      <glyph glyph-name="uni045C" unicode="&#x045C;" d="M239 538L457 969L619 969L398 526L654 0L491 0L239 515L239 0L96 0L96 969L239 969L239 538M309 1365L422 1365L334 1115L233 1115L309 1365Z"  horiz-adv-x="654" vert-adv-y="2048"  />

      
      </font>
</defs>
</svg>
